<svg width="500" height="500" viewBox="0 0 500 500" fill="none" xmlns="http://www.w3.org/2000/svg">
<path d="M340.5 37C387.168 37 425 45.5066 425 56C425 66.4934 387.168 75 340.5 75C332.782 75 325.306 74.7649 318.203 74.3291C338.865 85.5535 352.883 96.4377 362.084 105.742C372.496 116.271 376.779 124.819 377.486 129.567C380.042 131.974 382.526 134.454 384.942 137H115.057C117.445 134.482 119.902 132.029 122.427 129.648L122.505 129.118C123.19 124.48 127.471 116.099 137.92 105.77C147.354 96.4437 161.852 85.4946 183.382 74.2285C175.809 74.7293 167.794 75 159.5 75C112.832 75 75 66.4934 75 56C75 45.5066 112.832 37 159.5 37C192.125 37 220.431 41.1598 234.513 47.2471C238.352 45.2517 243.869 44 250 44C256.131 44 261.647 45.2519 265.486 47.2471C279.567 41.1596 307.874 37 340.5 37ZM210.293 71.1846C209.186 71.3721 208.058 71.5532 206.909 71.7285C165.504 89.5447 140.256 116.566 132.148 129H169.641C173.635 116.563 187.019 89.0536 210.293 71.1846ZM241 64.8945C224.952 70.9047 192.031 91.3419 179.619 129H241V64.8945ZM258 129H320.222C307.421 89.9672 273.573 69.1477 258 63.5312V129ZM291.007 71.3994C313.185 89.4489 326.096 116.3 330.198 129H367.537C359.298 116.364 335.101 90.1148 295.835 72.1299C294.187 71.8987 292.577 71.6549 291.007 71.3994Z" fill="white"/>
<path d="M340.5 37C387.168 37 425 45.5066 425 56C425 66.4934 387.168 75 340.5 75C332.782 75 325.306 74.7649 318.203 74.3291C338.865 85.5535 352.883 96.4377 362.084 105.742C372.496 116.271 376.779 124.819 377.486 129.567C380.042 131.974 382.526 134.454 384.942 137H115.057C117.445 134.482 119.902 132.029 122.427 129.648L122.505 129.118C123.19 124.48 127.471 116.099 137.92 105.77C147.354 96.4437 161.852 85.4946 183.382 74.2285C175.809 74.7293 167.794 75 159.5 75C112.832 75 75 66.4934 75 56C75 45.5066 112.832 37 159.5 37C192.125 37 220.431 41.1598 234.513 47.2471C238.352 45.2517 243.869 44 250 44C256.131 44 261.647 45.2519 265.486 47.2471C279.567 41.1596 307.874 37 340.5 37ZM210.293 71.1846C209.186 71.3721 208.058 71.5532 206.909 71.7285C165.504 89.5447 140.256 116.566 132.148 129H169.641C173.635 116.563 187.019 89.0536 210.293 71.1846ZM241 64.8945C224.952 70.9047 192.031 91.3419 179.619 129H241V64.8945ZM258 129H320.222C307.421 89.9672 273.573 69.1477 258 63.5312V129ZM291.007 71.3994C313.185 89.4489 326.096 116.3 330.198 129H367.537C359.298 116.364 335.101 90.1148 295.835 72.1299C294.187 71.8987 292.577 71.6549 291.007 71.3994Z" fill="white"/>
<rect x="189.165" y="267" width="121" height="49" fill="white"/>
<path d="M327.208 193.881C359.842 188.127 390.961 209.917 396.715 242.551L416.298 353.608C417.057 356.042 417.669 358.551 418.124 361.128C423.877 393.762 402.087 424.881 369.454 430.636C336.821 436.389 305.701 414.599 299.947 381.966C299.918 381.804 299.891 381.642 299.864 381.48L299.376 381.566L278.538 263.389C272.784 230.755 294.574 199.636 327.208 193.881ZM349.782 321.906C322.588 326.702 304.429 352.635 309.224 379.829C314.019 407.024 339.952 425.182 367.147 420.387C394.342 415.592 412.5 389.659 407.705 362.464C402.91 335.27 376.977 317.111 349.782 321.906ZM320.088 153.504C352.722 147.75 383.842 169.54 389.596 202.174C390.42 206.851 390.678 211.497 390.421 216.041C379.682 191.041 352.838 175.755 324.881 180.685C296.924 185.614 276.926 209.16 275.386 236.325C273.589 232.143 272.244 227.689 271.419 223.012C265.665 190.378 287.455 159.259 320.088 153.504Z" fill="white"/>
<path d="M170.85 193.796C203.483 199.55 225.273 230.67 219.519 263.303L199.937 374.361C199.818 376.907 199.535 379.475 199.081 382.051C193.326 414.685 162.207 436.475 129.573 430.721C96.9399 424.967 75.1498 393.847 80.9036 361.214C80.9322 361.052 80.9624 360.89 80.9921 360.728L80.5046 360.643L101.342 242.466C107.097 209.832 138.216 188.042 170.85 193.796ZM148.275 321.821C121.081 317.026 95.1478 335.184 90.3526 362.379C85.5575 389.574 103.716 415.507 130.911 420.302C158.105 425.097 184.038 406.939 188.833 379.744C193.629 352.549 175.47 326.616 148.275 321.821ZM177.969 153.419C210.603 159.173 232.393 190.293 226.639 222.926C225.814 227.603 224.468 232.057 222.671 236.239C221.131 209.074 201.133 185.529 173.177 180.599C145.22 175.67 118.375 190.955 107.636 215.956C107.378 211.411 107.637 206.765 108.462 202.088C114.216 169.455 145.336 147.665 177.969 153.419Z" fill="white"/>
</svg>
