<svg width="300" height="200" viewBox="0 0 300 200" fill="none" xmlns="http://www.w3.org/2000/svg">
<mask id="path-1-outside-1_318_218" maskUnits="userSpaceOnUse" x="19" y="56" width="278" height="94" fill="black">
<rect fill="white" x="19" y="56" width="278" height="94"/>
<path d="M54.28 145H34.72L24.88 61.24H42.4L45.52 94.96L47.56 126.52H48.4L62.68 94.96L79.12 61.24H97.6L54.28 145ZM126.383 145H88.2231L91.1031 130.84H101.423L112.583 75.4H102.263L105.023 61.24H143.183L140.303 75.4H129.983L118.823 130.84H129.143L126.383 145ZM141.148 145L157.948 61.24H193.708C199.788 61.24 204.788 62.64 208.708 65.44C212.628 68.24 214.588 72.56 214.588 78.4C214.588 82.08 213.988 85.48 212.788 88.6C211.588 91.72 209.788 94.4 207.388 96.64C204.988 98.88 201.948 100.52 198.268 101.56L198.148 102.16C202.548 103.36 205.708 105.4 207.628 108.28C209.628 111.08 210.628 114.44 210.628 118.36C210.628 123.64 209.548 128.28 207.388 132.28C205.228 136.28 201.988 139.4 197.668 141.64C193.428 143.88 188.108 145 181.708 145H141.148ZM161.668 130.12H181.708C184.508 130.12 186.708 129.52 188.308 128.32C189.988 127.04 191.108 125.04 191.668 122.32C192.068 120.24 192.348 118.72 192.508 117.76C192.668 116.8 192.748 116.04 192.748 115.48C192.748 113.88 192.228 112.6 191.188 111.64C190.148 110.6 188.468 110.08 186.148 110.08H165.628L161.668 130.12ZM168.508 95.8H185.428C188.228 95.8 190.428 95.24 192.028 94.12C193.708 93 194.828 91.08 195.388 88.36C195.788 86.28 196.068 84.8 196.228 83.92C196.388 83.04 196.468 82.32 196.468 81.76C196.468 80.08 195.948 78.72 194.908 77.68C193.868 76.64 192.228 76.12 189.988 76.12H172.468L168.508 95.8ZM274.392 145H219.312L236.112 61.24H289.992L286.872 76.6H250.512L246.792 94.96H278.952L275.832 110.32H243.672L239.832 129.64H277.512L274.392 145Z"/>
</mask>
<path d="M54.28 145H34.72L24.88 61.24H42.4L45.52 94.96L47.56 126.52H48.4L62.68 94.96L79.12 61.24H97.6L54.28 145ZM126.383 145H88.2231L91.1031 130.84H101.423L112.583 75.4H102.263L105.023 61.24H143.183L140.303 75.4H129.983L118.823 130.84H129.143L126.383 145ZM141.148 145L157.948 61.24H193.708C199.788 61.24 204.788 62.64 208.708 65.44C212.628 68.24 214.588 72.56 214.588 78.4C214.588 82.08 213.988 85.48 212.788 88.6C211.588 91.72 209.788 94.4 207.388 96.64C204.988 98.88 201.948 100.52 198.268 101.56L198.148 102.16C202.548 103.36 205.708 105.4 207.628 108.28C209.628 111.08 210.628 114.44 210.628 118.36C210.628 123.64 209.548 128.28 207.388 132.28C205.228 136.28 201.988 139.4 197.668 141.64C193.428 143.88 188.108 145 181.708 145H141.148ZM161.668 130.12H181.708C184.508 130.12 186.708 129.52 188.308 128.32C189.988 127.04 191.108 125.04 191.668 122.32C192.068 120.24 192.348 118.72 192.508 117.76C192.668 116.8 192.748 116.04 192.748 115.48C192.748 113.88 192.228 112.6 191.188 111.64C190.148 110.6 188.468 110.08 186.148 110.08H165.628L161.668 130.12ZM168.508 95.8H185.428C188.228 95.8 190.428 95.24 192.028 94.12C193.708 93 194.828 91.08 195.388 88.36C195.788 86.28 196.068 84.8 196.228 83.92C196.388 83.04 196.468 82.32 196.468 81.76C196.468 80.08 195.948 78.72 194.908 77.68C193.868 76.64 192.228 76.12 189.988 76.12H172.468L168.508 95.8ZM274.392 145H219.312L236.112 61.24H289.992L286.872 76.6H250.512L246.792 94.96H278.952L275.832 110.32H243.672L239.832 129.64H277.512L274.392 145Z" fill="url(#paint0_linear_318_218)"/>
<path d="M54.28 145V150H57.3232L58.7212 147.297L54.28 145ZM34.72 145L29.7542 145.583L30.273 150H34.72V145ZM24.88 61.24V56.24H19.2582L19.9142 61.8234L24.88 61.24ZM42.4 61.24L47.3787 60.7793L46.9587 56.24H42.4V61.24ZM45.52 94.96L50.5096 94.6375L50.5051 94.5683L50.4987 94.4993L45.52 94.96ZM47.56 126.52L42.5704 126.843L42.8728 131.52H47.56V126.52ZM48.4 126.52V131.52H51.6257L52.9554 128.581L48.4 126.52ZM62.68 94.96L58.1857 92.7688L58.1542 92.8334L58.1246 92.8988L62.68 94.96ZM79.12 61.24V56.24H75.9951L74.6257 59.0488L79.12 61.24ZM97.6 61.24L102.041 63.5369L105.815 56.24H97.6V61.24ZM54.28 145V140H34.72V145V150H54.28V145ZM34.72 145L39.6859 144.417L29.8458 60.6566L24.88 61.24L19.9142 61.8234L29.7542 145.583L34.72 145ZM24.88 61.24V66.24H42.4V61.24V56.24H24.88V61.24ZM42.4 61.24L37.4213 61.7007L40.5413 95.4207L45.52 94.96L50.4987 94.4993L47.3787 60.7793L42.4 61.24ZM45.52 94.96L40.5304 95.2825L42.5704 126.843L47.56 126.52L52.5496 126.197L50.5096 94.6375L45.52 94.96ZM47.56 126.52V131.52H48.4V126.52V121.52H47.56V126.52ZM48.4 126.52L52.9554 128.581L67.2354 97.0212L62.68 94.96L58.1246 92.8988L43.8446 124.459L48.4 126.52ZM62.68 94.96L67.1743 97.1512L83.6143 63.4312L79.12 61.24L74.6257 59.0488L58.1857 92.7688L62.68 94.96ZM79.12 61.24V66.24H97.6V61.24V56.24H79.12V61.24ZM97.6 61.24L93.1588 58.9431L49.8388 142.703L54.28 145L58.7212 147.297L102.041 63.5369L97.6 61.24ZM126.383 145V150H130.503L131.291 145.957L126.383 145ZM88.2231 145L83.3234 144.003L82.1038 150H88.2231V145ZM91.1031 130.84V125.84H87.0177L86.2034 129.843L91.1031 130.84ZM101.423 130.84V135.84H105.517L106.325 131.827L101.423 130.84ZM112.583 75.4L117.485 76.3867L118.69 70.4H112.583V75.4ZM102.263 75.4L97.3555 74.4434L96.1945 80.4H102.263V75.4ZM105.023 61.24V56.24H100.904L100.115 60.2834L105.023 61.24ZM143.183 61.24L148.083 62.2365L149.302 56.24H143.183V61.24ZM140.303 75.4V80.4H144.389L145.203 76.3965L140.303 75.4ZM129.983 75.4V70.4H125.889L125.081 74.4133L129.983 75.4ZM118.823 130.84L113.921 129.853L112.716 135.84H118.823V130.84ZM129.143 130.84L134.051 131.797L135.212 125.84H129.143V130.84ZM126.383 145V140H88.2231V145V150H126.383V145ZM88.2231 145L93.1228 145.997L96.0028 131.837L91.1031 130.84L86.2034 129.843L83.3234 144.003L88.2231 145ZM91.1031 130.84V135.84H101.423V130.84V125.84H91.1031V130.84ZM101.423 130.84L106.325 131.827L117.485 76.3867L112.583 75.4L107.681 74.4133L96.5215 129.853L101.423 130.84ZM112.583 75.4V70.4H102.263V75.4V80.4H112.583V75.4ZM102.263 75.4L107.171 76.3566L109.931 62.1966L105.023 61.24L100.115 60.2834L97.3555 74.4434L102.263 75.4ZM105.023 61.24V66.24H143.183V61.24V56.24H105.023V61.24ZM143.183 61.24L138.283 60.2435L135.403 74.4035L140.303 75.4L145.203 76.3965L148.083 62.2365L143.183 61.24ZM140.303 75.4V70.4H129.983V75.4V80.4H140.303V75.4ZM129.983 75.4L125.081 74.4133L113.921 129.853L118.823 130.84L123.725 131.827L134.885 76.3867L129.983 75.4ZM118.823 130.84V135.84H129.143V130.84V125.84H118.823V130.84ZM129.143 130.84L124.235 129.883L121.475 144.043L126.383 145L131.291 145.957L134.051 131.797L129.143 130.84ZM141.148 145L136.245 144.017L135.045 150H141.148V145ZM157.948 61.24V56.24H153.851L153.045 60.2567L157.948 61.24ZM208.708 65.44L211.614 61.3713V61.3713L208.708 65.44ZM212.788 88.6L208.121 86.8051V86.8051L212.788 88.6ZM207.388 96.64L203.976 92.9847V92.9847L207.388 96.64ZM198.268 101.56L196.908 96.7485L193.965 97.5802L193.365 100.579L198.268 101.56ZM198.148 102.16L193.245 101.179L192.33 105.756L196.832 106.984L198.148 102.16ZM207.628 108.28L203.468 111.053L203.512 111.121L203.559 111.186L207.628 108.28ZM207.388 132.28L202.988 129.904V129.904L207.388 132.28ZM197.668 141.64L195.366 137.201L195.349 137.21L195.332 137.219L197.668 141.64ZM161.668 130.12L156.763 129.151L155.583 135.12H161.668V130.12ZM188.308 128.32L191.308 132.32L191.323 132.309L191.338 132.297L188.308 128.32ZM191.668 122.32L196.565 123.328L196.572 123.296L196.578 123.264L191.668 122.32ZM192.508 117.76L187.576 116.938V116.938L192.508 117.76ZM191.188 111.64L187.652 115.176L187.723 115.246L187.796 115.314L191.188 111.64ZM165.628 110.08V105.08H161.519L160.723 109.111L165.628 110.08ZM168.508 95.8L163.606 94.8137L162.401 100.8H168.508V95.8ZM192.028 94.12L189.254 89.9597L189.207 89.9913L189.16 90.0238L192.028 94.12ZM195.388 88.36L200.285 89.3683L200.292 89.3363L200.298 89.3042L195.388 88.36ZM196.228 83.92L201.147 84.8144V84.8144L196.228 83.92ZM194.908 77.68L198.443 74.1445L198.443 74.1445L194.908 77.68ZM172.468 76.12V71.12H168.374L167.566 75.1337L172.468 76.12ZM141.148 145L146.05 145.983L162.85 62.2233L157.948 61.24L153.045 60.2567L136.245 144.017L141.148 145ZM157.948 61.24V66.24H193.708V61.24V56.24H157.948V61.24ZM193.708 61.24V66.24C199.021 66.24 202.929 67.4566 205.802 69.5087L208.708 65.44L211.614 61.3713C206.647 57.8234 200.555 56.24 193.708 56.24V61.24ZM208.708 65.44L205.802 69.5087C208.121 71.1655 209.588 73.7872 209.588 78.4H214.588H219.588C219.588 71.3328 217.134 65.3145 211.614 61.3713L208.708 65.44ZM214.588 78.4H209.588C209.588 81.5282 209.08 84.3129 208.121 86.8051L212.788 88.6L217.455 90.3949C218.896 86.647 219.588 82.6318 219.588 78.4H214.588ZM212.788 88.6L208.121 86.8051C207.188 89.2312 205.812 91.2714 203.976 92.9847L207.388 96.64L210.799 100.295C213.764 97.5286 215.988 94.2088 217.455 90.3949L212.788 88.6ZM207.388 96.64L203.976 92.9847C202.247 94.5983 199.948 95.8893 196.908 96.7485L198.268 101.56L199.628 106.372C203.947 105.151 207.728 103.162 210.799 100.295L207.388 96.64ZM198.268 101.56L193.365 100.579L193.245 101.179L198.148 102.16L203.051 103.141L203.171 102.541L198.268 101.56ZM198.148 102.16L196.832 106.984C200.444 107.969 202.406 109.461 203.468 111.053L207.628 108.28L211.788 105.507C209.01 101.339 204.652 98.7513 199.463 97.3362L198.148 102.16ZM207.628 108.28L203.559 111.186C204.871 113.023 205.628 115.331 205.628 118.36H210.628H215.628C215.628 113.549 214.384 109.137 211.696 105.374L207.628 108.28ZM210.628 118.36H205.628C205.628 122.945 204.695 126.744 202.988 129.904L207.388 132.28L211.787 134.656C214.401 129.816 215.628 124.335 215.628 118.36H210.628ZM207.388 132.28L202.988 129.904C201.339 132.959 198.862 135.389 195.366 137.201L197.668 141.64L199.969 146.079C205.114 143.411 209.117 139.601 211.787 134.656L207.388 132.28ZM197.668 141.64L195.332 137.219C192.012 138.973 187.555 140 181.708 140V145V150C188.66 150 194.843 148.787 200.003 146.061L197.668 141.64ZM181.708 145V140H141.148V145V150H181.708V145ZM161.668 130.12V135.12H181.708V130.12V125.12H161.668V130.12ZM181.708 130.12V135.12C185.167 135.12 188.556 134.384 191.308 132.32L188.308 128.32L185.308 124.32C184.859 124.656 183.848 125.12 181.708 125.12V130.12ZM188.308 128.32L191.338 132.297C194.247 130.081 195.84 126.852 196.565 123.328L191.668 122.32L186.771 121.312C186.376 123.228 185.729 123.999 185.278 124.343L188.308 128.32ZM191.668 122.32L196.578 123.264C196.979 121.179 197.269 119.607 197.44 118.582L192.508 117.76L187.576 116.938C187.427 117.833 187.157 119.301 186.758 121.376L191.668 122.32ZM192.508 117.76L197.44 118.582C197.617 117.517 197.748 116.444 197.748 115.48H192.748H187.748C187.748 115.636 187.718 116.083 187.576 116.938L192.508 117.76ZM192.748 115.48H197.748C197.748 112.686 196.784 110.001 194.579 107.966L191.188 111.64L187.796 115.314C187.8 115.317 187.787 115.305 187.767 115.277C187.748 115.249 187.733 115.221 187.725 115.202C187.718 115.183 187.723 115.189 187.73 115.228C187.737 115.27 187.748 115.351 187.748 115.48H192.748ZM191.188 111.64L194.723 108.104C192.327 105.708 189.053 105.08 186.148 105.08V110.08V115.08C186.957 115.08 187.433 115.173 187.669 115.246C187.884 115.313 187.809 115.333 187.652 115.176L191.188 111.64ZM186.148 110.08V105.08H165.628V110.08V115.08H186.148V110.08ZM165.628 110.08L160.723 109.111L156.763 129.151L161.668 130.12L166.573 131.089L170.533 111.049L165.628 110.08ZM168.508 95.8V100.8H185.428V95.8V90.8H168.508V95.8ZM185.428 95.8V100.8C188.827 100.8 192.162 100.129 194.895 98.2162L192.028 94.12L189.16 90.0238C188.693 90.3508 187.629 90.8 185.428 90.8V95.8ZM192.028 94.12L194.801 98.2802C197.934 96.1915 199.561 92.884 200.285 89.3683L195.388 88.36L190.491 87.3517C190.094 89.276 189.481 89.8085 189.254 89.9597L192.028 94.12ZM195.388 88.36L200.298 89.3042C200.698 87.2239 200.982 85.7218 201.147 84.8144L196.228 83.92L191.308 83.0256C191.153 83.8782 190.878 85.3361 190.478 87.4158L195.388 88.36ZM196.228 83.92L201.147 84.8144C201.333 83.7915 201.468 82.7428 201.468 81.76H196.468H191.468C191.468 81.8972 191.442 82.2885 191.308 83.0256L196.228 83.92ZM196.468 81.76H201.468C201.468 78.9589 200.557 76.2578 198.443 74.1445L194.908 77.68L191.372 81.2155C191.383 81.2263 191.39 81.2338 191.393 81.238C191.396 81.242 191.398 81.2442 191.398 81.2449C191.399 81.2456 191.399 81.2467 191.4 81.2489C191.401 81.2511 191.404 81.2564 191.408 81.2657C191.419 81.295 191.468 81.4378 191.468 81.76H196.468ZM194.908 77.68L198.443 74.1445C196.074 71.7754 192.873 71.12 189.988 71.12V76.12V81.12C190.741 81.12 191.177 81.2098 191.387 81.2762C191.573 81.3351 191.508 81.3509 191.372 81.2155L194.908 77.68ZM189.988 76.12V71.12H172.468V76.12V81.12H189.988V76.12ZM172.468 76.12L167.566 75.1337L163.606 94.8137L168.508 95.8L173.41 96.7863L177.37 77.1063L172.468 76.12ZM274.392 145V150H278.478L279.292 145.995L274.392 145ZM219.312 145L214.41 144.017L213.209 150H219.312V145ZM236.112 61.24V56.24H232.015L231.21 60.2567L236.112 61.24ZM289.992 61.24L294.892 62.2353L296.11 56.24H289.992V61.24ZM286.872 76.6V81.6H290.958L291.772 77.5953L286.872 76.6ZM250.512 76.6V71.6H246.423L245.611 75.6071L250.512 76.6ZM246.792 94.96L241.891 93.9671L240.677 99.96H246.792V94.96ZM278.952 94.96L283.852 95.9553L285.07 89.96H278.952V94.96ZM275.832 110.32V115.32H279.918L280.732 111.315L275.832 110.32ZM243.672 110.32V105.32H239.568L238.768 109.345L243.672 110.32ZM239.832 129.64L234.928 128.665L233.74 134.64H239.832V129.64ZM277.512 129.64L282.412 130.635L283.63 124.64H277.512V129.64ZM274.392 145V140H219.312V145V150H274.392V145ZM219.312 145L224.214 145.983L241.014 62.2233L236.112 61.24L231.21 60.2567L214.41 144.017L219.312 145ZM236.112 61.24V66.24H289.992V61.24V56.24H236.112V61.24ZM289.992 61.24L285.092 60.2447L281.972 75.6047L286.872 76.6L291.772 77.5953L294.892 62.2353L289.992 61.24ZM286.872 76.6V71.6H250.512V76.6V81.6H286.872V76.6ZM250.512 76.6L245.611 75.6071L241.891 93.9671L246.792 94.96L251.692 95.9529L255.412 77.5929L250.512 76.6ZM246.792 94.96V99.96H278.952V94.96V89.96H246.792V94.96ZM278.952 94.96L274.052 93.9647L270.932 109.325L275.832 110.32L280.732 111.315L283.852 95.9553L278.952 94.96ZM275.832 110.32V105.32H243.672V110.32V115.32H275.832V110.32ZM243.672 110.32L238.768 109.345L234.928 128.665L239.832 129.64L244.736 130.615L248.576 111.295L243.672 110.32ZM239.832 129.64V134.64H277.512V129.64V124.64H239.832V129.64ZM277.512 129.64L272.612 128.645L269.492 144.005L274.392 145L279.292 145.995L282.412 130.635L277.512 129.64Z" fill="#7FFFE3" mask="url(#path-1-outside-1_318_218)"/>
<path d="M65.0801 135H28.5107L27.3359 125H70.252L65.0801 135ZM124.93 125.84H135.212L134.051 131.797L133.427 135H85.1543L86.2031 129.844L87.0176 125.84H97.3291L97.498 125H125.099L124.93 125.84ZM215.078 125C214.484 128.44 213.4 131.67 211.787 134.656C211.725 134.772 211.661 134.886 211.598 135H138.054L140.06 125H167.776L167.753 125.12H181.708C182.382 125.12 182.944 125.074 183.411 125H215.078ZM282.412 130.636L281.525 135H216.218L218.224 125H283.557L282.412 130.636ZM182.579 130.098C182.295 130.111 182.005 130.12 181.708 130.12L182.226 130.113C182.345 130.11 182.462 130.103 182.579 130.098ZM75.4238 115H26.1611L24.9863 105H51.1797L51.3633 107.841L52.6484 105H80.5957L75.4238 115ZM127.112 115H99.5117L101.524 105H129.125L127.112 115ZM211.696 105.374C213.745 108.242 214.954 111.488 215.413 115H142.065L144.07 105H211.433C211.522 105.124 211.61 105.248 211.696 105.374ZM280.731 111.315L279.983 115H220.229L222.234 105H282.015L280.731 111.315ZM191.611 112.084C191.592 112.061 191.574 112.037 191.554 112.015L191.543 112.003C191.566 112.03 191.589 112.057 191.611 112.084ZM190.56 111.126L190.535 111.109C190.522 111.101 190.508 111.093 190.495 111.085C190.517 111.099 190.538 111.112 190.56 111.126ZM50.499 94.5L50.5049 94.5684L50.5098 94.6377L50.5332 95H23.8115L22.6367 85H49.6201L50.499 94.5ZM85.7686 95H57.1738L58.124 92.8994L58.1543 92.834L58.1855 92.7695L61.9736 85H90.9404L85.7686 95ZM131.138 95H103.537L105.551 85H133.151L131.138 95ZM218.982 85C218.63 86.8528 218.124 88.6533 217.454 90.3955C216.829 92.0219 216.064 93.5577 215.164 95H146.076L148.082 85H175.78L174.613 90.7998H185.428C187.628 90.7998 188.693 90.3513 189.16 90.0244L189.207 89.9912L189.254 89.96C189.481 89.8087 190.094 89.2757 190.49 87.3516C190.664 86.45 190.813 85.6665 190.939 85H218.982ZM252.906 89.96H285.069L284.046 95H224.24L226.246 85H253.911L252.906 89.96ZM212.788 88.5996C212.713 88.7946 212.635 88.9882 212.556 89.1797L212.788 88.6006C212.861 88.41 212.932 88.2182 213.001 88.0254C212.932 88.2179 212.861 88.4092 212.788 88.5996ZM48.6943 75H21.4619L20.2871 65H47.7695L48.6943 75ZM145.487 75H97.2471L97.3555 74.4434L97.9326 71.4795L96.1123 75H66.8486L71.7246 65H147.521L145.487 75ZM215.425 65C217.635 67.8208 218.919 71.2151 219.385 75H150.088L152.094 65H208.062C208.154 65.0601 208.246 65.1198 208.337 65.1816L208.063 65H215.425ZM292.299 75H228.252L230.258 65H294.33L292.299 75ZM208.708 65.4404L208.349 65.1895C208.345 65.1868 208.341 65.1843 208.337 65.1816C208.462 65.2664 208.585 65.3529 208.708 65.4404Z" fill="url(#paint1_linear_318_218)" fill-opacity="0.42"/>
<path d="M242.8 140.894L260.673 150H213.209L214.409 144.017L218.07 125.762L250.302 93.5312L242.8 140.894ZM214.761 126.605C214.129 129.449 213.146 132.139 211.787 134.656C209.116 139.602 205.114 143.412 199.97 146.079L199.969 146.078C198.483 146.86 196.913 147.516 195.265 148.055L183.51 124.982C184.447 124.823 184.988 124.553 185.289 124.332C185.738 123.984 186.375 123.214 186.767 121.326C187.16 119.278 187.428 117.826 187.576 116.938C187.719 116.084 187.748 115.636 187.748 115.48C187.748 115.386 187.74 115.317 187.734 115.271C187.716 115.264 187.695 115.255 187.669 115.247C187.433 115.174 186.956 115.08 186.147 115.08H178.464L173.669 105.669L214.761 126.605ZM197.668 141.64C197.539 141.708 197.408 141.776 197.276 141.842L197.668 141.641C197.696 141.626 197.722 141.61 197.75 141.596C197.723 141.61 197.696 141.625 197.668 141.64Z" fill="url(#paint2_linear_318_218)"/>
<mask id="path-5-outside-2_318_218" maskUnits="userSpaceOnUse" x="19" y="56" width="278" height="94" fill="black">
<rect fill="white" x="19" y="56" width="278" height="94"/>
<path d="M54.28 145H34.72L24.88 61.24H42.4L45.52 94.96L47.56 126.52H48.4L62.68 94.96L79.12 61.24H97.6L54.28 145ZM126.383 145H88.2231L91.1031 130.84H101.423L112.583 75.4H102.263L105.023 61.24H143.183L140.303 75.4H129.983L118.823 130.84H129.143L126.383 145ZM141.148 145L157.948 61.24H193.708C199.788 61.24 204.788 62.64 208.708 65.44C212.628 68.24 214.588 72.56 214.588 78.4C214.588 82.08 213.988 85.48 212.788 88.6C211.588 91.72 209.788 94.4 207.388 96.64C204.988 98.88 201.948 100.52 198.268 101.56L198.148 102.16C202.548 103.36 205.708 105.4 207.628 108.28C209.628 111.08 210.628 114.44 210.628 118.36C210.628 123.64 209.548 128.28 207.388 132.28C205.228 136.28 201.988 139.4 197.668 141.64C193.428 143.88 188.108 145 181.708 145H141.148ZM161.668 130.12H181.708C184.508 130.12 186.708 129.52 188.308 128.32C189.988 127.04 191.108 125.04 191.668 122.32C192.068 120.24 192.348 118.72 192.508 117.76C192.668 116.8 192.748 116.04 192.748 115.48C192.748 113.88 192.228 112.6 191.188 111.64C190.148 110.6 188.468 110.08 186.148 110.08H165.628L161.668 130.12ZM168.508 95.8H185.428C188.228 95.8 190.428 95.24 192.028 94.12C193.708 93 194.828 91.08 195.388 88.36C195.788 86.28 196.068 84.8 196.228 83.92C196.388 83.04 196.468 82.32 196.468 81.76C196.468 80.08 195.948 78.72 194.908 77.68C193.868 76.64 192.228 76.12 189.988 76.12H172.468L168.508 95.8ZM274.392 145H219.312L236.112 61.24H289.992L286.872 76.6H250.512L246.792 94.96H278.952L275.832 110.32H243.672L239.832 129.64H277.512L274.392 145Z"/>
</mask>
<path d="M54.28 145V150H57.3232L58.7212 147.297L54.28 145ZM34.72 145L29.7542 145.583L30.273 150H34.72V145ZM24.88 61.24V56.24H19.2582L19.9142 61.8234L24.88 61.24ZM42.4 61.24L47.3787 60.7793L46.9587 56.24H42.4V61.24ZM45.52 94.96L50.5096 94.6375L50.5051 94.5683L50.4987 94.4993L45.52 94.96ZM47.56 126.52L42.5704 126.843L42.8728 131.52H47.56V126.52ZM48.4 126.52V131.52H51.6257L52.9554 128.581L48.4 126.52ZM62.68 94.96L58.1857 92.7688L58.1542 92.8334L58.1246 92.8988L62.68 94.96ZM79.12 61.24V56.24H75.9951L74.6257 59.0488L79.12 61.24ZM97.6 61.24L102.041 63.5369L105.815 56.24H97.6V61.24ZM54.28 145V140H34.72V145V150H54.28V145ZM34.72 145L39.6859 144.417L29.8458 60.6566L24.88 61.24L19.9142 61.8234L29.7542 145.583L34.72 145ZM24.88 61.24V66.24H42.4V61.24V56.24H24.88V61.24ZM42.4 61.24L37.4213 61.7007L40.5413 95.4207L45.52 94.96L50.4987 94.4993L47.3787 60.7793L42.4 61.24ZM45.52 94.96L40.5304 95.2825L42.5704 126.843L47.56 126.52L52.5496 126.197L50.5096 94.6375L45.52 94.96ZM47.56 126.52V131.52H48.4V126.52V121.52H47.56V126.52ZM48.4 126.52L52.9554 128.581L67.2354 97.0212L62.68 94.96L58.1246 92.8988L43.8446 124.459L48.4 126.52ZM62.68 94.96L67.1743 97.1512L83.6143 63.4312L79.12 61.24L74.6257 59.0488L58.1857 92.7688L62.68 94.96ZM79.12 61.24V66.24H97.6V61.24V56.24H79.12V61.24ZM97.6 61.24L93.1588 58.9431L49.8388 142.703L54.28 145L58.7212 147.297L102.041 63.5369L97.6 61.24ZM126.383 145V150H130.503L131.291 145.957L126.383 145ZM88.2231 145L83.3234 144.003L82.1038 150H88.2231V145ZM91.1031 130.84V125.84H87.0177L86.2034 129.843L91.1031 130.84ZM101.423 130.84V135.84H105.517L106.325 131.827L101.423 130.84ZM112.583 75.4L117.485 76.3867L118.69 70.4H112.583V75.4ZM102.263 75.4L97.3555 74.4434L96.1945 80.4H102.263V75.4ZM105.023 61.24V56.24H100.904L100.115 60.2834L105.023 61.24ZM143.183 61.24L148.083 62.2365L149.302 56.24H143.183V61.24ZM140.303 75.4V80.4H144.389L145.203 76.3965L140.303 75.4ZM129.983 75.4V70.4H125.889L125.081 74.4133L129.983 75.4ZM118.823 130.84L113.921 129.853L112.716 135.84H118.823V130.84ZM129.143 130.84L134.051 131.797L135.212 125.84H129.143V130.84ZM126.383 145V140H88.2231V145V150H126.383V145ZM88.2231 145L93.1228 145.997L96.0028 131.837L91.1031 130.84L86.2034 129.843L83.3234 144.003L88.2231 145ZM91.1031 130.84V135.84H101.423V130.84V125.84H91.1031V130.84ZM101.423 130.84L106.325 131.827L117.485 76.3867L112.583 75.4L107.681 74.4133L96.5215 129.853L101.423 130.84ZM112.583 75.4V70.4H102.263V75.4V80.4H112.583V75.4ZM102.263 75.4L107.171 76.3566L109.931 62.1966L105.023 61.24L100.115 60.2834L97.3555 74.4434L102.263 75.4ZM105.023 61.24V66.24H143.183V61.24V56.24H105.023V61.24ZM143.183 61.24L138.283 60.2435L135.403 74.4035L140.303 75.4L145.203 76.3965L148.083 62.2365L143.183 61.24ZM140.303 75.4V70.4H129.983V75.4V80.4H140.303V75.4ZM129.983 75.4L125.081 74.4133L113.921 129.853L118.823 130.84L123.725 131.827L134.885 76.3867L129.983 75.4ZM118.823 130.84V135.84H129.143V130.84V125.84H118.823V130.84ZM129.143 130.84L124.235 129.883L121.475 144.043L126.383 145L131.291 145.957L134.051 131.797L129.143 130.84ZM141.148 145L136.245 144.017L135.045 150H141.148V145ZM157.948 61.24V56.24H153.851L153.045 60.2567L157.948 61.24ZM208.708 65.44L211.614 61.3713V61.3713L208.708 65.44ZM212.788 88.6L208.121 86.8051V86.8051L212.788 88.6ZM207.388 96.64L203.976 92.9847V92.9847L207.388 96.64ZM198.268 101.56L196.908 96.7485L193.965 97.5802L193.365 100.579L198.268 101.56ZM198.148 102.16L193.245 101.179L192.33 105.756L196.832 106.984L198.148 102.16ZM207.628 108.28L203.468 111.053L203.512 111.121L203.559 111.186L207.628 108.28ZM207.388 132.28L202.988 129.904V129.904L207.388 132.28ZM197.668 141.64L195.366 137.201L195.349 137.21L195.332 137.219L197.668 141.64ZM161.668 130.12L156.763 129.151L155.583 135.12H161.668V130.12ZM188.308 128.32L191.308 132.32L191.323 132.309L191.338 132.297L188.308 128.32ZM191.668 122.32L196.565 123.328L196.572 123.296L196.578 123.264L191.668 122.32ZM192.508 117.76L187.576 116.938V116.938L192.508 117.76ZM191.188 111.64L187.652 115.176L187.723 115.246L187.796 115.314L191.188 111.64ZM165.628 110.08V105.08H161.519L160.723 109.111L165.628 110.08ZM168.508 95.8L163.606 94.8137L162.401 100.8H168.508V95.8ZM192.028 94.12L189.254 89.9597L189.207 89.9913L189.16 90.0238L192.028 94.12ZM195.388 88.36L200.285 89.3683L200.292 89.3363L200.298 89.3042L195.388 88.36ZM196.228 83.92L201.147 84.8144V84.8144L196.228 83.92ZM194.908 77.68L198.443 74.1445L198.443 74.1445L194.908 77.68ZM172.468 76.12V71.12H168.374L167.566 75.1337L172.468 76.12ZM141.148 145L146.05 145.983L162.85 62.2233L157.948 61.24L153.045 60.2567L136.245 144.017L141.148 145ZM157.948 61.24V66.24H193.708V61.24V56.24H157.948V61.24ZM193.708 61.24V66.24C199.021 66.24 202.929 67.4566 205.802 69.5087L208.708 65.44L211.614 61.3713C206.647 57.8234 200.555 56.24 193.708 56.24V61.24ZM208.708 65.44L205.802 69.5087C208.121 71.1655 209.588 73.7872 209.588 78.4H214.588H219.588C219.588 71.3328 217.134 65.3145 211.614 61.3713L208.708 65.44ZM214.588 78.4H209.588C209.588 81.5282 209.08 84.3129 208.121 86.8051L212.788 88.6L217.455 90.3949C218.896 86.647 219.588 82.6318 219.588 78.4H214.588ZM212.788 88.6L208.121 86.8051C207.188 89.2312 205.812 91.2714 203.976 92.9847L207.388 96.64L210.799 100.295C213.764 97.5286 215.988 94.2088 217.455 90.3949L212.788 88.6ZM207.388 96.64L203.976 92.9847C202.247 94.5983 199.948 95.8893 196.908 96.7485L198.268 101.56L199.628 106.372C203.947 105.151 207.728 103.162 210.799 100.295L207.388 96.64ZM198.268 101.56L193.365 100.579L193.245 101.179L198.148 102.16L203.051 103.141L203.171 102.541L198.268 101.56ZM198.148 102.16L196.832 106.984C200.444 107.969 202.406 109.461 203.468 111.053L207.628 108.28L211.788 105.507C209.01 101.339 204.652 98.7513 199.463 97.3362L198.148 102.16ZM207.628 108.28L203.559 111.186C204.871 113.023 205.628 115.331 205.628 118.36H210.628H215.628C215.628 113.549 214.384 109.137 211.696 105.374L207.628 108.28ZM210.628 118.36H205.628C205.628 122.945 204.695 126.744 202.988 129.904L207.388 132.28L211.787 134.656C214.401 129.816 215.628 124.335 215.628 118.36H210.628ZM207.388 132.28L202.988 129.904C201.339 132.959 198.862 135.389 195.366 137.201L197.668 141.64L199.969 146.079C205.114 143.411 209.117 139.601 211.787 134.656L207.388 132.28ZM197.668 141.64L195.332 137.219C192.012 138.973 187.555 140 181.708 140V145V150C188.66 150 194.843 148.787 200.003 146.061L197.668 141.64ZM181.708 145V140H141.148V145V150H181.708V145ZM161.668 130.12V135.12H181.708V130.12V125.12H161.668V130.12ZM181.708 130.12V135.12C185.167 135.12 188.556 134.384 191.308 132.32L188.308 128.32L185.308 124.32C184.859 124.656 183.848 125.12 181.708 125.12V130.12ZM188.308 128.32L191.338 132.297C194.247 130.081 195.84 126.852 196.565 123.328L191.668 122.32L186.771 121.312C186.376 123.228 185.729 123.999 185.278 124.343L188.308 128.32ZM191.668 122.32L196.578 123.264C196.979 121.179 197.269 119.607 197.44 118.582L192.508 117.76L187.576 116.938C187.427 117.833 187.157 119.301 186.758 121.376L191.668 122.32ZM192.508 117.76L197.44 118.582C197.617 117.517 197.748 116.444 197.748 115.48H192.748H187.748C187.748 115.636 187.718 116.083 187.576 116.938L192.508 117.76ZM192.748 115.48H197.748C197.748 112.686 196.784 110.001 194.579 107.966L191.188 111.64L187.796 115.314C187.8 115.317 187.787 115.305 187.767 115.277C187.748 115.249 187.733 115.221 187.725 115.202C187.718 115.183 187.723 115.189 187.73 115.228C187.737 115.27 187.748 115.351 187.748 115.48H192.748ZM191.188 111.64L194.723 108.104C192.327 105.708 189.053 105.08 186.148 105.08V110.08V115.08C186.957 115.08 187.433 115.173 187.669 115.246C187.884 115.313 187.809 115.333 187.652 115.176L191.188 111.64ZM186.148 110.08V105.08H165.628V110.08V115.08H186.148V110.08ZM165.628 110.08L160.723 109.111L156.763 129.151L161.668 130.12L166.573 131.089L170.533 111.049L165.628 110.08ZM168.508 95.8V100.8H185.428V95.8V90.8H168.508V95.8ZM185.428 95.8V100.8C188.827 100.8 192.162 100.129 194.895 98.2162L192.028 94.12L189.16 90.0238C188.693 90.3508 187.629 90.8 185.428 90.8V95.8ZM192.028 94.12L194.801 98.2802C197.934 96.1915 199.561 92.884 200.285 89.3683L195.388 88.36L190.491 87.3517C190.094 89.276 189.481 89.8085 189.254 89.9597L192.028 94.12ZM195.388 88.36L200.298 89.3042C200.698 87.2239 200.982 85.7218 201.147 84.8144L196.228 83.92L191.308 83.0256C191.153 83.8782 190.878 85.3361 190.478 87.4158L195.388 88.36ZM196.228 83.92L201.147 84.8144C201.333 83.7915 201.468 82.7428 201.468 81.76H196.468H191.468C191.468 81.8972 191.442 82.2885 191.308 83.0256L196.228 83.92ZM196.468 81.76H201.468C201.468 78.9589 200.557 76.2578 198.443 74.1445L194.908 77.68L191.372 81.2155C191.383 81.2263 191.39 81.2338 191.393 81.238C191.396 81.242 191.398 81.2442 191.398 81.2449C191.399 81.2456 191.399 81.2467 191.4 81.2489C191.401 81.2511 191.404 81.2564 191.408 81.2657C191.419 81.295 191.468 81.4378 191.468 81.76H196.468ZM194.908 77.68L198.443 74.1445C196.074 71.7754 192.873 71.12 189.988 71.12V76.12V81.12C190.741 81.12 191.177 81.2098 191.387 81.2762C191.573 81.3351 191.508 81.3509 191.372 81.2155L194.908 77.68ZM189.988 76.12V71.12H172.468V76.12V81.12H189.988V76.12ZM172.468 76.12L167.566 75.1337L163.606 94.8137L168.508 95.8L173.41 96.7863L177.37 77.1063L172.468 76.12ZM274.392 145V150H278.478L279.292 145.995L274.392 145ZM219.312 145L214.41 144.017L213.209 150H219.312V145ZM236.112 61.24V56.24H232.015L231.21 60.2567L236.112 61.24ZM289.992 61.24L294.892 62.2353L296.11 56.24H289.992V61.24ZM286.872 76.6V81.6H290.958L291.772 77.5953L286.872 76.6ZM250.512 76.6V71.6H246.423L245.611 75.6071L250.512 76.6ZM246.792 94.96L241.891 93.9671L240.677 99.96H246.792V94.96ZM278.952 94.96L283.852 95.9553L285.07 89.96H278.952V94.96ZM275.832 110.32V115.32H279.918L280.732 111.315L275.832 110.32ZM243.672 110.32V105.32H239.568L238.768 109.345L243.672 110.32ZM239.832 129.64L234.928 128.665L233.74 134.64H239.832V129.64ZM277.512 129.64L282.412 130.635L283.63 124.64H277.512V129.64ZM274.392 145V140H219.312V145V150H274.392V145ZM219.312 145L224.214 145.983L241.014 62.2233L236.112 61.24L231.21 60.2567L214.41 144.017L219.312 145ZM236.112 61.24V66.24H289.992V61.24V56.24H236.112V61.24ZM289.992 61.24L285.092 60.2447L281.972 75.6047L286.872 76.6L291.772 77.5953L294.892 62.2353L289.992 61.24ZM286.872 76.6V71.6H250.512V76.6V81.6H286.872V76.6ZM250.512 76.6L245.611 75.6071L241.891 93.9671L246.792 94.96L251.692 95.9529L255.412 77.5929L250.512 76.6ZM246.792 94.96V99.96H278.952V94.96V89.96H246.792V94.96ZM278.952 94.96L274.052 93.9647L270.932 109.325L275.832 110.32L280.732 111.315L283.852 95.9553L278.952 94.96ZM275.832 110.32V105.32H243.672V110.32V115.32H275.832V110.32ZM243.672 110.32L238.768 109.345L234.928 128.665L239.832 129.64L244.736 130.615L248.576 111.295L243.672 110.32ZM239.832 129.64V134.64H277.512V129.64V124.64H239.832V129.64ZM277.512 129.64L272.612 128.645L269.492 144.005L274.392 145L279.292 145.995L282.412 130.635L277.512 129.64Z" fill="#7FFFE3" mask="url(#path-5-outside-2_318_218)"/>
<defs>
<linearGradient id="paint0_linear_318_218" x1="150" y1="22" x2="150" y2="178" gradientUnits="userSpaceOnUse">
<stop stop-color="#FFA914"/>
<stop offset="1" stop-color="#FF4FF0"/>
</linearGradient>
<linearGradient id="paint1_linear_318_218" x1="20.2871" y1="130" x2="294.33" y2="130" gradientUnits="userSpaceOnUse">
<stop stop-color="#FF914E"/>
<stop offset="0.5" stop-color="#FFAA77"/>
<stop offset="1" stop-color="#FF914E"/>
</linearGradient>
<linearGradient id="paint2_linear_318_218" x1="150" y1="22" x2="150" y2="178" gradientUnits="userSpaceOnUse">
<stop offset="1" stop-color="#FF4FF0"/>
</linearGradient>
</defs>
</svg>
