<svg width="500" height="500" viewBox="0 0 500 500" fill="none" xmlns="http://www.w3.org/2000/svg">
<path d="M340.5 43C387.168 43 425 51.5066 425 62C425 72.4934 387.168 81 340.5 81C332.782 81 325.306 80.7649 318.203 80.3291C338.865 91.5535 352.883 102.438 362.084 111.742C372.496 122.271 376.779 130.819 377.486 135.567C413.508 169.488 436 217.616 436 271C436 373.725 352.725 457 250 457C147.275 457 64 373.725 64 271C64 217.659 86.4558 169.565 122.427 135.648L122.505 135.118C123.19 130.48 127.471 122.099 137.92 111.77C147.354 102.444 161.852 91.4946 183.382 80.2285C175.809 80.7293 167.794 81 159.5 81C112.832 81 75 72.4934 75 62C75 51.5066 112.832 43 159.5 43C192.125 43 220.431 47.1598 234.513 53.2471C238.352 51.2517 243.869 50 250 50C256.131 50 261.647 51.2519 265.486 53.2471C279.567 47.1596 307.874 43 340.5 43ZM274.462 222.61L274.366 222.406L274.253 223.339L266.318 251H202.328L201.75 250H131.25L130.672 251H75.125C74.3825 257.564 74 264.237 74 271C74 271.794 74.0061 272.587 74.0166 273.378L72.165 272L65 281.626L74.9082 289.001C83.9239 377.747 158.875 447 250 447C341.161 447 416.134 377.692 425.101 288.895L434.867 281.626L427.701 272L425.984 273.276C425.994 272.519 426 271.76 426 271C426 264.237 425.617 257.564 424.875 251H372.328L371.75 250H301.25L300.672 251H287.777L275.365 224.536L274.638 222L274.462 222.61ZM390.976 348C394.206 348 396.082 351.618 394.128 354.19C360.98 397.824 308.538 426 249.514 426C190.49 426 138.047 397.824 104.899 354.19C102.945 351.618 104.822 348 108.052 348H117.381L122.004 356H116.501C120.982 361.403 125.784 366.531 130.877 371.354L131.25 372H131.562C162.675 401.15 204.502 419 250.5 419C296.498 419 338.325 401.15 369.438 372H371.75L374.752 366.803C378.147 363.339 381.401 359.736 384.499 356H380.996L385.619 348H390.976ZM292.004 356H210.996L215.619 348H287.381L292.004 356ZM210.293 77.1846C209.186 77.3721 208.058 77.5532 206.909 77.7285C165.504 95.5447 140.256 122.566 132.148 135H169.641C173.635 122.563 187.019 95.0536 210.293 77.1846ZM241 70.8945C224.952 76.9047 192.031 97.3419 179.619 135H241V70.8945ZM258 135H320.222C307.421 95.9672 273.573 75.1477 258 69.5312V135ZM291.007 77.3994C313.185 95.4489 326.096 122.3 330.198 135H367.537C359.298 122.364 335.101 96.1148 295.835 78.1299C294.187 77.8987 292.577 77.6549 291.007 77.3994Z" fill="#081535"/>
<path d="M340.5 43C387.168 43 425 51.5066 425 62C425 72.4934 387.168 81 340.5 81C332.782 81 325.306 80.7649 318.203 80.3291C338.865 91.5535 352.883 102.438 362.084 111.742C372.496 122.271 376.779 130.819 377.486 135.567C413.508 169.488 436 217.616 436 271C436 373.725 352.725 457 250 457C147.275 457 64 373.725 64 271C64 217.659 86.4558 169.565 122.427 135.648L122.505 135.118C123.19 130.48 127.471 122.099 137.92 111.77C147.354 102.444 161.852 91.4946 183.382 80.2285C175.809 80.7293 167.794 81 159.5 81C112.832 81 75 72.4934 75 62C75 51.5066 112.832 43 159.5 43C192.125 43 220.431 47.1598 234.513 53.2471C238.352 51.2517 243.869 50 250 50C256.131 50 261.647 51.2519 265.486 53.2471C279.567 47.1596 307.874 43 340.5 43ZM274.462 222.61L274.366 222.406L274.253 223.339L266.318 251H202.328L201.75 250H131.25L130.672 251H75.125C74.3825 257.564 74 264.237 74 271C74 271.794 74.0061 272.587 74.0166 273.378L72.165 272L65 281.626L74.9082 289.001C83.9239 377.747 158.875 447 250 447C341.161 447 416.134 377.692 425.101 288.895L434.867 281.626L427.701 272L425.984 273.276C425.994 272.519 426 271.76 426 271C426 264.237 425.617 257.564 424.875 251H372.328L371.75 250H301.25L300.672 251H287.777L275.365 224.536L274.638 222L274.462 222.61ZM390.976 348C394.206 348 396.082 351.618 394.128 354.19C360.98 397.824 308.538 426 249.514 426C190.49 426 138.047 397.824 104.899 354.19C102.945 351.618 104.822 348 108.052 348H117.381L122.004 356H116.501C120.982 361.403 125.784 366.531 130.877 371.354L131.25 372H131.562C162.675 401.15 204.502 419 250.5 419C296.498 419 338.325 401.15 369.438 372H371.75L374.752 366.803C378.147 363.339 381.401 359.736 384.499 356H380.996L385.619 348H390.976ZM292.004 356H210.996L215.619 348H287.381L292.004 356ZM210.293 77.1846C209.186 77.3721 208.058 77.5532 206.909 77.7285C165.504 95.5447 140.256 122.566 132.148 135H169.641C173.635 122.563 187.019 95.0536 210.293 77.1846ZM241 70.8945C224.952 76.9047 192.031 97.3419 179.619 135H241V70.8945ZM258 135H320.222C307.421 95.9672 273.573 75.1477 258 69.5312V135ZM291.007 77.3994C313.185 95.4489 326.096 122.3 330.198 135H367.537C359.298 122.364 335.101 96.1148 295.835 78.1299C294.187 77.8987 292.577 77.6549 291.007 77.3994Z" fill="white"/>
<path d="M304.135 255H368.864L401.225 311L368.864 367H304.135L271.774 311L304.135 255Z" stroke="white" stroke-width="10"/>
<rect width="19.6572" height="109.877" transform="matrix(-0.636965 0.770893 0.770893 0.636965 312.947 251.178)" fill="white"/>
<rect width="5.65575" height="92.6484" transform="matrix(-0.636965 0.770893 0.770893 0.636965 329.942 252.37)" fill="white"/>
<path d="M134.135 255H198.864L231.225 311L198.864 367H134.135L101.774 311L134.135 255Z" stroke="white" stroke-width="10"/>
<rect width="19.6572" height="109.877" transform="matrix(-0.636965 0.770893 0.770893 0.636965 142.947 251.178)" fill="white"/>
<rect width="5.65575" height="92.6484" transform="matrix(-0.636965 0.770893 0.770893 0.636965 159.942 252.37)" fill="white"/>
<rect x="228" y="304" width="47" height="12" fill="white"/>
<rect x="390" y="300.064" width="47" height="12" transform="rotate(-36.663 390 300.064)" fill="white"/>
<rect x="102.703" y="309.688" width="47" height="12" transform="rotate(-143.34 102.703 309.688)" fill="white"/>
</svg>
