<svg width="143" height="66" viewBox="0 0 143 66" fill="none" xmlns="http://www.w3.org/2000/svg">
<rect width="143" height="66" fill="#777777"/>
<rect width="10" height="66" fill="#5386E4"/>
<path d="M41.7214 34L47.1614 8.24004H59.6414C61.9881 8.24004 63.6948 8.84004 64.7614 10.04C65.8548 11.24 66.1748 12.9334 65.7214 15.12C65.4281 16.5067 64.8948 17.68 64.1214 18.64C63.3748 19.5734 62.4814 20.28 61.4414 20.76C62.6148 21.1067 63.4681 21.7334 64.0014 22.64C64.5614 23.52 64.6548 24.8267 64.2814 26.56C63.2148 31.52 60.0414 34 54.7614 34H41.7214ZM49.2014 19.24H56.7214C58.1881 19.24 59.3081 18.9067 60.0814 18.24C60.8548 17.5467 61.3614 16.6267 61.6014 15.48C61.7881 14.6 61.8281 13.8667 61.7214 13.28C61.6414 12.6934 61.3081 12.2534 60.7214 11.96C60.1348 11.6667 59.1881 11.52 57.8814 11.52H50.8414L49.2014 19.24ZM46.7614 30.8H54.5214C56.0681 30.8 57.2681 30.48 58.1214 29.84C58.9748 29.1734 59.5748 28.0267 59.9214 26.4C60.2148 25.0667 60.0681 24.08 59.4814 23.44C58.9214 22.7734 57.7081 22.44 55.8414 22.44H48.5214L46.7614 30.8Z" fill="#A7C1F1"/>
<path d="M71.5158 34.4C69.9958 34.4 68.9158 34 68.2758 33.2C67.6625 32.4 67.5291 31.16 67.8758 29.48L72.6358 7.04004H76.9958L72.3158 29.08C72.1558 29.8267 72.1558 30.3334 72.3158 30.6C72.4758 30.8667 72.8625 31 73.4758 31C74.1158 31 74.7558 30.92 75.3958 30.76L74.7158 33.92C74.1825 34.1067 73.6625 34.2267 73.1558 34.28C72.6758 34.36 72.1291 34.4 71.5158 34.4Z" fill="#A7C1F1"/>
<path d="M83.8711 34.4C81.7645 34.4 80.2045 33.7734 79.1911 32.52C78.1778 31.2667 77.9245 29.4267 78.4311 27L80.9511 15.04H85.3111L82.7911 27C82.4711 28.5467 82.5645 29.6267 83.0711 30.24C83.5778 30.8267 84.6045 31.12 86.1511 31.12C87.2178 31.12 88.2445 30.92 89.2311 30.52C90.2178 30.12 91.1111 29.5867 91.9111 28.92L94.8711 15.04H99.1911L95.1911 34H91.2311L91.4311 32.04C90.4445 32.7067 89.3111 33.2667 88.0311 33.72C86.7511 34.1734 85.3645 34.4 83.8711 34.4Z" fill="#A7C1F1"/>
<path d="M109.795 34.4C107.715 34.4 105.969 34.04 104.555 33.32C103.169 32.6 102.195 31.5067 101.635 30.04C101.075 28.5734 101.035 26.72 101.515 24.48C102.155 21.44 103.369 19.04 105.155 17.28C106.969 15.52 109.569 14.64 112.955 14.64C114.849 14.64 116.355 15 117.475 15.72C118.595 16.44 119.355 17.4134 119.755 18.64C120.182 19.8667 120.235 21.2267 119.915 22.72L119.195 26.24H105.315C105.129 28.08 105.475 29.3467 106.355 30.04C107.235 30.7334 108.915 31.08 111.395 31.08C112.355 31.08 113.355 30.9867 114.395 30.8C115.435 30.6134 116.369 30.3734 117.195 30.08L116.515 33.28C115.582 33.6534 114.542 33.9334 113.395 34.12C112.249 34.3067 111.049 34.4 109.795 34.4ZM105.915 23.4H115.955L116.235 22.08C116.529 20.7734 116.409 19.76 115.875 19.04C115.369 18.2934 114.209 17.92 112.395 17.92C110.369 17.92 108.875 18.36 107.915 19.24C106.982 20.12 106.315 21.5067 105.915 23.4Z" fill="#A7C1F1"/>
<path d="M23.5845 61L24.0645 58.68L42.1045 38.8H28.9445L29.7045 35.24H48.4645L47.9045 37.92L29.9845 57.64H43.9045L43.2245 61H23.5845Z" fill="#A7C1F1"/>
<path d="M54.7507 61.4C51.6041 61.4 49.3507 60.5467 47.9907 58.84C46.6574 57.1333 46.3241 54.6933 46.9907 51.52C47.6574 48.3467 48.9241 45.9067 50.7907 44.2C52.6574 42.4933 55.3774 41.64 58.9507 41.64C62.2041 41.64 64.4841 42.4933 65.7907 44.2C67.1241 45.9067 67.4574 48.3467 66.7907 51.52C66.1241 54.6933 64.8574 57.1333 62.9907 58.84C61.1241 60.5467 58.3774 61.4 54.7507 61.4ZM55.5507 57.72C57.5507 57.72 59.0707 57.24 60.1107 56.28C61.1507 55.2933 61.9107 53.7067 62.3907 51.52C62.8441 49.3333 62.8041 47.76 62.2707 46.8C61.7374 45.84 60.3774 45.36 58.1907 45.36C56.2174 45.36 54.6974 45.84 53.6307 46.8C52.5907 47.76 51.8441 49.3333 51.3907 51.52C50.9107 53.7067 50.9507 55.2933 51.5107 56.28C52.0974 57.24 53.4441 57.72 55.5507 57.72Z" fill="#A7C1F1"/>
<path d="M69.0729 61L73.0729 42.04H77.0729L76.8729 44.04C77.8596 43.3733 78.9929 42.8133 80.2729 42.36C81.5529 41.88 82.9129 41.64 84.3529 41.64C86.6729 41.64 88.2996 42.2533 89.2329 43.48C90.1662 44.7067 90.3929 46.4533 89.9129 48.72L87.3129 61H82.9929L85.5529 48.92C85.8462 47.4533 85.7796 46.4267 85.3529 45.84C84.9262 45.2533 83.8462 44.96 82.1129 44.96C81.1262 44.96 80.1129 45.16 79.0729 45.56C78.0329 45.96 77.1262 46.48 76.3529 47.12L73.4329 61H69.0729Z" fill="#A7C1F1"/>
<path d="M101.092 61.4C99.012 61.4 97.2653 61.04 95.852 60.32C94.4653 59.6 93.492 58.5067 92.932 57.04C92.372 55.5733 92.332 53.72 92.812 51.48C93.452 48.44 94.6653 46.04 96.452 44.28C98.2653 42.52 100.865 41.64 104.252 41.64C106.145 41.64 107.652 42 108.772 42.72C109.892 43.44 110.652 44.4133 111.052 45.64C111.479 46.8667 111.532 48.2267 111.212 49.72L110.492 53.24H96.612C96.4253 55.08 96.772 56.3467 97.652 57.04C98.532 57.7333 100.212 58.08 102.692 58.08C103.652 58.08 104.652 57.9867 105.692 57.8C106.732 57.6133 107.665 57.3733 108.492 57.08L107.812 60.28C106.879 60.6533 105.839 60.9333 104.692 61.12C103.545 61.3067 102.345 61.4 101.092 61.4ZM97.212 50.4H107.252L107.532 49.08C107.825 47.7733 107.705 46.76 107.172 46.04C106.665 45.2933 105.505 44.92 103.692 44.92C101.665 44.92 100.172 45.36 99.212 46.24C98.2786 47.12 97.612 48.5067 97.212 50.4Z" fill="#A7C1F1"/>
<path d="M21.5845 60L22.0645 57.68L40.1045 37.8H26.9445L27.7045 34.24H46.4645L45.9045 36.92L27.9845 56.64H41.9045L41.2245 60H21.5845Z" fill="#5386E4"/>
<path d="M52.7507 60.4C49.6041 60.4 47.3507 59.5467 45.9907 57.84C44.6574 56.1333 44.3241 53.6933 44.9907 50.52C45.6574 47.3467 46.9241 44.9067 48.7907 43.2C50.6574 41.4933 53.3774 40.64 56.9507 40.64C60.2041 40.64 62.4841 41.4933 63.7907 43.2C65.1241 44.9067 65.4574 47.3467 64.7907 50.52C64.1241 53.6933 62.8574 56.1333 60.9907 57.84C59.1241 59.5467 56.3774 60.4 52.7507 60.4ZM53.5507 56.72C55.5507 56.72 57.0707 56.24 58.1107 55.28C59.1507 54.2933 59.9107 52.7067 60.3907 50.52C60.8441 48.3333 60.8041 46.76 60.2707 45.8C59.7374 44.84 58.3774 44.36 56.1907 44.36C54.2174 44.36 52.6974 44.84 51.6307 45.8C50.5907 46.76 49.8441 48.3333 49.3907 50.52C48.9107 52.7067 48.9507 54.2933 49.5107 55.28C50.0974 56.24 51.4441 56.72 53.5507 56.72Z" fill="#5386E4"/>
<path d="M67.0729 60L71.0729 41.04H75.0729L74.8729 43.04C75.8596 42.3733 76.9929 41.8133 78.2729 41.36C79.5529 40.88 80.9129 40.64 82.3529 40.64C84.6729 40.64 86.2996 41.2533 87.2329 42.48C88.1662 43.7067 88.3929 45.4533 87.9129 47.72L85.3129 60H80.9929L83.5529 47.92C83.8462 46.4533 83.7796 45.4267 83.3529 44.84C82.9262 44.2533 81.8462 43.96 80.1129 43.96C79.1262 43.96 78.1129 44.16 77.0729 44.56C76.0329 44.96 75.1262 45.48 74.3529 46.12L71.4329 60H67.0729Z" fill="#5386E4"/>
<path d="M99.092 60.4C97.012 60.4 95.2653 60.04 93.852 59.32C92.4653 58.6 91.492 57.5067 90.932 56.04C90.372 54.5733 90.332 52.72 90.812 50.48C91.452 47.44 92.6653 45.04 94.452 43.28C96.2653 41.52 98.8653 40.64 102.252 40.64C104.145 40.64 105.652 41 106.772 41.72C107.892 42.44 108.652 43.4133 109.052 44.64C109.479 45.8667 109.532 47.2267 109.212 48.72L108.492 52.24H94.612C94.4253 54.08 94.772 55.3467 95.652 56.04C96.532 56.7333 98.212 57.08 100.692 57.08C101.652 57.08 102.652 56.9867 103.692 56.8C104.732 56.6133 105.665 56.3733 106.492 56.08L105.812 59.28C104.879 59.6533 103.839 59.9333 102.692 60.12C101.545 60.3067 100.345 60.4 99.092 60.4ZM95.212 49.4H105.252L105.532 48.08C105.825 46.7733 105.705 45.76 105.172 45.04C104.665 44.2933 103.505 43.92 101.692 43.92C99.6653 43.92 98.172 44.36 97.212 45.24C96.2786 46.12 95.612 47.5067 95.212 49.4Z" fill="#5386E4"/>
<path d="M40.7214 32L46.1614 6.24004H58.6414C60.9881 6.24004 62.6948 6.84004 63.7614 8.04004C64.8548 9.24004 65.1748 10.9334 64.7214 13.12C64.4281 14.5067 63.8948 15.68 63.1214 16.64C62.3748 17.5734 61.4814 18.28 60.4414 18.76C61.6148 19.1067 62.4681 19.7334 63.0014 20.64C63.5614 21.52 63.6548 22.8267 63.2814 24.56C62.2148 29.52 59.0414 32 53.7614 32H40.7214ZM48.2014 17.24H55.7214C57.1881 17.24 58.3081 16.9067 59.0814 16.24C59.8548 15.5467 60.3614 14.6267 60.6014 13.48C60.7881 12.6 60.8281 11.8667 60.7214 11.28C60.6414 10.6934 60.3081 10.2534 59.7214 9.96004C59.1348 9.66671 58.1881 9.52004 56.8814 9.52004H49.8414L48.2014 17.24ZM45.7614 28.8H53.5214C55.0681 28.8 56.2681 28.48 57.1214 27.84C57.9748 27.1734 58.5748 26.0267 58.9214 24.4C59.2148 23.0667 59.0681 22.08 58.4814 21.44C57.9214 20.7734 56.7081 20.44 54.8414 20.44H47.5214L45.7614 28.8Z" fill="#5386E4"/>
<path d="M70.5158 32.4C68.9958 32.4 67.9158 32 67.2758 31.2C66.6625 30.4 66.5291 29.16 66.8758 27.48L71.6358 5.04004H75.9958L71.3158 27.08C71.1558 27.8267 71.1558 28.3334 71.3158 28.6C71.4758 28.8667 71.8625 29 72.4758 29C73.1158 29 73.7558 28.92 74.3958 28.76L73.7158 31.92C73.1825 32.1067 72.6625 32.2267 72.1558 32.28C71.6758 32.36 71.1291 32.4 70.5158 32.4Z" fill="#5386E4"/>
<path d="M82.8711 32.4C80.7645 32.4 79.2045 31.7734 78.1911 30.52C77.1778 29.2667 76.9245 27.4267 77.4311 25L79.9511 13.04H84.3111L81.7911 25C81.4711 26.5467 81.5645 27.6267 82.0711 28.24C82.5778 28.8267 83.6045 29.12 85.1511 29.12C86.2178 29.12 87.2445 28.92 88.2311 28.52C89.2178 28.12 90.1111 27.5867 90.9111 26.92L93.8711 13.04H98.1911L94.1911 32H90.2311L90.4311 30.04C89.4445 30.7067 88.3111 31.2667 87.0311 31.72C85.7511 32.1734 84.3645 32.4 82.8711 32.4Z" fill="#5386E4"/>
<path d="M108.795 32.4C106.715 32.4 104.969 32.04 103.555 31.32C102.169 30.6 101.195 29.5067 100.635 28.04C100.075 26.5734 100.035 24.72 100.515 22.48C101.155 19.44 102.369 17.04 104.155 15.28C105.969 13.52 108.569 12.64 111.955 12.64C113.849 12.64 115.355 13 116.475 13.72C117.595 14.44 118.355 15.4134 118.755 16.64C119.182 17.8667 119.235 19.2267 118.915 20.72L118.195 24.24H104.315C104.129 26.08 104.475 27.3467 105.355 28.04C106.235 28.7334 107.915 29.08 110.395 29.08C111.355 29.08 112.355 28.9867 113.395 28.8C114.435 28.6134 115.369 28.3734 116.195 28.08L115.515 31.28C114.582 31.6534 113.542 31.9334 112.395 32.12C111.249 32.3067 110.049 32.4 108.795 32.4ZM104.915 21.4H114.955L115.235 20.08C115.529 18.7734 115.409 17.76 114.875 17.04C114.369 16.2934 113.209 15.92 111.395 15.92C109.369 15.92 107.875 16.36 106.915 17.24C105.982 18.12 105.315 19.5067 104.915 21.4Z" fill="#5386E4"/>
<path d="M39.6445 32H28V7H44.959L39.6445 32Z" fill="#A7C1F1"/>
<path d="M37.6445 31H26V6H42.959L37.6445 31Z" fill="#5386E4"/>
</svg>
