<svg width="143" height="526" viewBox="0 0 143 526" fill="none" xmlns="http://www.w3.org/2000/svg">
<rect width="143" height="175" fill="#777777"/>
<rect y="175" width="143" height="176" fill="#4A4A4A"/>
<rect y="351" width="143" height="175" fill="#4A4A4A"/>
<path d="M71.3544 468.795C67.112 468.795 63.3336 468.066 60.0192 466.608C56.7237 465.131 54.1196 463.104 52.2067 460.528C50.3127 457.934 49.3374 454.941 49.2805 451.551H61.6669C61.7427 452.972 62.2067 454.222 63.0589 455.301C63.9302 456.362 65.0855 457.186 66.5249 457.773C67.9643 458.36 69.5836 458.653 71.3828 458.653C73.2578 458.653 74.915 458.322 76.3544 457.659C77.7938 456.996 78.9207 456.078 79.7351 454.903C80.5495 453.729 80.9567 452.375 80.9567 450.841C80.9567 449.288 80.5211 447.915 79.6499 446.722C78.7976 445.509 77.5665 444.562 75.9567 443.881C74.3658 443.199 72.4718 442.858 70.2749 442.858H64.8487V433.824H70.2749C72.1309 433.824 73.7692 433.502 75.1896 432.858C76.629 432.214 77.7464 431.324 78.5419 430.188C79.3374 429.032 79.7351 427.688 79.7351 426.153C79.7351 424.695 79.3847 423.417 78.6839 422.318C78.0021 421.201 77.0362 420.33 75.7862 419.705C74.5552 419.08 73.1158 418.767 71.468 418.767C69.8014 418.767 68.2768 419.07 66.8942 419.676C65.5116 420.263 64.4036 421.106 63.5703 422.205C62.737 423.303 62.2919 424.591 62.2351 426.068H50.4453C50.5021 422.716 51.4586 419.761 53.3146 417.205C55.1707 414.648 57.6707 412.65 60.8146 411.21C63.9775 409.752 67.5476 409.023 71.5249 409.023C75.54 409.023 79.0533 409.752 82.0646 411.21C85.076 412.669 87.415 414.638 89.0817 417.119C90.7673 419.581 91.6006 422.347 91.5817 425.415C91.6006 428.672 90.5874 431.39 88.5419 433.568C86.5154 435.746 83.8733 437.129 80.6158 437.716V438.17C84.8961 438.72 88.1536 440.206 90.3885 442.631C92.6423 445.036 93.7597 448.047 93.7408 451.665C93.7597 454.979 92.8033 457.924 90.8715 460.5C88.9586 463.076 86.3165 465.102 82.9453 466.58C79.5741 468.057 75.7105 468.795 71.3544 468.795Z" fill="#C1C5CC"/>
<path d="M51.0206 292V283.136L71.7308 263.96C73.4922 262.256 74.9695 260.722 76.1626 259.358C77.3748 257.994 78.2933 256.659 78.9183 255.352C79.5433 254.027 79.8558 252.597 79.8558 251.062C79.8558 249.358 79.4676 247.89 78.6911 246.659C77.9145 245.409 76.8539 244.453 75.5092 243.79C74.1645 243.108 72.6399 242.767 70.9354 242.767C69.1551 242.767 67.602 243.127 66.2763 243.847C64.9505 244.566 63.9278 245.598 63.2081 246.943C62.4884 248.288 62.1286 249.888 62.1286 251.744H50.4524C50.4524 247.937 51.3142 244.633 53.0376 241.83C54.7611 239.027 57.1759 236.858 60.282 235.324C63.388 233.79 66.9676 233.023 71.0206 233.023C75.1873 233.023 78.8142 233.761 81.9013 235.239C85.0073 236.697 87.4221 238.723 89.1456 241.318C90.8691 243.913 91.7308 246.886 91.7308 250.239C91.7308 252.436 91.2952 254.604 90.424 256.744C89.5717 258.884 88.0471 261.261 85.8501 263.875C83.6532 266.47 80.5566 269.585 76.5604 273.222L68.0661 281.545V281.943H92.4979V292H51.0206Z" fill="#C1C5CC"/>
<path d="M81.9581 58.8182V117H69.657V70.4943H69.3161L55.9922 78.8466V67.9375L70.3956 58.8182H81.9581Z" fill="#C1C5CC"/>
<rect width="10" height="223" fill="#5386E4"/>
<rect y="223" width="10" height="80" fill="#4A4A4A"/>
<rect y="303" width="10" height="223" fill="#DC3F61"/>
</svg>
