<svg width="143" height="66" viewBox="0 0 143 66" fill="none" xmlns="http://www.w3.org/2000/svg">
<rect width="143" height="66" fill="#777777"/>
<rect width="10" height="18" fill="#5386E4"/>
<rect width="10" height="18" fill="#5386E4"/>
<rect y="48" width="10" height="18" fill="#DC3F61"/>
<rect y="18" width="10" height="30" fill="#777777"/>
<path d="M63.7269 51.8403C63.7269 53.2034 63.7405 54.0805 63.766 54.4888L63.767 54.4995L63.7953 54.9263C63.8326 55.3151 63.8949 55.5901 63.9691 55.7681C64.0262 55.9048 64.0999 55.9866 64.1996 56.0356L64.309 56.0747L64.3197 56.0776L64.3314 56.0815C64.5239 56.1392 64.8883 56.1802 65.4672 56.1802H66.5277V62.8198H65.4672C63.1301 62.8198 61.2667 62.6466 59.8988 62.2837C58.5189 61.9176 57.4388 61.2834 56.7142 60.3491L56.5941 60.1899C56.0095 59.3814 55.637 58.3608 55.4535 57.1548L55.4515 57.145C55.2873 55.8862 55.2074 54.1138 55.2074 51.8403C55.2074 49.7535 55.2741 48.1048 55.4105 46.9038C55.5493 45.6823 55.8581 44.6369 56.3558 43.7876C56.897 42.8296 57.7339 42.135 58.8334 41.6987L59.2592 41.5356C60.2929 41.1753 61.6121 40.9555 63.1976 40.8608L63.7269 40.8296V51.8403ZM109.974 53.4399C109.974 54.338 110.014 54.9466 110.082 55.2954L110.106 55.3872C110.15 55.5325 110.217 55.6421 110.305 55.7271L110.422 55.8179L110.431 55.8237C110.611 55.9438 110.927 56.0458 111.427 56.0864L111.654 56.1001L111.664 56.1011C112.506 56.1537 113.403 56.1802 114.354 56.1802C116.058 56.1802 117.276 56.1401 118.022 56.063L118.035 56.061L120.075 55.9019L120.614 55.8589V61.9321L120.257 62.0386C119.139 62.3739 117.633 62.5898 115.757 62.6978C114.832 62.7794 113.75 62.8198 112.514 62.8198C110.041 62.8198 108.055 62.6188 106.578 62.2007L106.567 62.1978C105.199 61.7768 104.112 61.1215 103.345 60.2095L103.197 60.0239C102.524 59.1471 102.097 58.079 101.9 56.8384V56.8364C101.707 55.5994 101.614 53.9303 101.614 51.8403C101.614 49.9124 101.68 48.3697 101.817 47.2212C101.955 46.0291 102.249 44.9923 102.712 44.1245L102.714 44.1206C103.248 43.1421 104.062 42.3934 105.13 41.8726L105.339 41.7729C106.405 41.2858 107.779 40.9893 109.435 40.8618L109.974 40.8198V53.4399ZM65.4672 40.7798C67.8056 40.7798 69.6724 40.967 71.0443 41.3589H71.0433C72.421 41.7257 73.4998 42.3593 74.223 43.2935H74.222C74.8771 44.1282 75.2733 45.2171 75.4418 46.5249L75.5092 47.0229C75.6559 48.2408 75.7269 49.8499 75.7269 51.8403C75.7269 53.9535 75.6603 55.6158 75.5238 56.8169C75.4115 58.0114 75.1163 59.0336 74.6146 59.8599L74.6136 59.8608C74.0452 60.7883 73.1972 61.4793 72.101 61.9409L72.0912 61.9448C71.0073 62.3727 69.5468 62.6307 67.7367 62.7388L67.2074 62.771V51.8403C67.2074 50.4779 67.194 49.5852 67.1683 49.1489L67.1674 49.1411C67.1414 48.5192 67.065 48.1099 66.9662 47.8726L66.9603 47.8599C66.8707 47.6269 66.763 47.5522 66.6586 47.5229C66.3963 47.4585 66.0052 47.4204 65.4672 47.4204H64.4076V40.7798H65.4672ZM51.8959 41.6997L51.3021 42.4985L36.5824 62.2983L36.432 62.4995H30.4008V55.9546L30.4994 55.8218L40.8187 41.9019L40.9691 41.6997H51.8959ZM52.9203 55.3804V62.4995H37.265L37.8597 61.7017L42.4203 55.5815L42.5697 55.3804H52.9203ZM87.098 41.1001V62.4995H78.6976V41.1001H87.098ZM92.3578 40.8198C94.8494 40.8198 96.6776 41.5862 97.6293 43.2681H97.6302C98.0433 43.9762 98.3124 44.8276 98.4525 45.8071C98.5906 46.746 98.6576 47.8921 98.6576 49.2397V62.4995H90.2582V52.3599C90.2582 50.9501 90.2445 50.0336 90.2191 49.5952C90.1663 48.8557 90.1021 48.4286 90.0463 48.2505C89.9996 48.1425 89.9459 48.1076 89.8597 48.0903L89.8373 48.0854L89.8138 48.0786C89.6214 48.021 89.257 47.98 88.6781 47.98H87.7777V42.229L87.9799 42.0786C89.1285 41.2246 90.6024 40.8198 92.3578 40.8198ZM111.713 40.7798C114.022 40.7798 115.839 40.9667 117.136 41.3608L117.383 41.438C118.594 41.8411 119.534 42.484 120.16 43.3892C120.755 44.2233 121.097 45.2712 121.21 46.5034C121.347 47.7059 121.413 49.4894 121.413 51.8403V53.9399H110.654V49.3003H113.447C113.434 48.7953 113.401 48.3748 113.349 48.0356C113.279 47.5765 113.183 47.3217 113.102 47.2036L113.097 47.1978V47.1968C113.006 47.0602 112.904 46.9958 112.776 46.9702L112.752 46.9653L112.73 46.9585C112.533 46.8996 112.204 46.8599 111.713 46.8599H110.654V40.7798H111.713ZM52.9203 33.98V40.3228L52.8256 40.4536L52.5052 40.894L52.3558 41.1001H30.8412V33.98H52.9203Z" fill="#C1C5CC" stroke="#363636"/>
<mask id="path-7-outside-1_77_172" maskUnits="userSpaceOnUse" x="14.0558" y="1.16003" width="124" height="31" fill="black">
<rect fill="white" x="14.0558" y="1.16003" width="124" height="31"/>
<path d="M24.8958 2.20003C25.1091 2.17337 25.4425 2.16003 25.8958 2.16003H26.9358C28.7225 2.16003 30.4691 2.29337 32.1758 2.56003C33.0558 2.69337 33.7358 2.8267 34.2158 2.96003V8.68003C33.8158 8.65337 33.1491 8.5867 32.2158 8.48003C30.9625 8.3467 29.8691 8.28003 28.9358 8.28003C27.8958 8.28003 27.0558 8.32003 26.4158 8.40003C25.8025 8.45337 25.2958 8.56003 24.8958 8.72004V2.20003ZM26.9358 30.32C24.2691 30.32 22.1491 30.0934 20.5758 29.64C19.0291 29.16 17.8558 28.3734 17.0558 27.28C16.2825 26.24 15.7491 24.8667 15.4558 23.16C15.1891 21.4267 15.0558 19.12 15.0558 16.24C15.0558 13.7067 15.1491 11.6534 15.3358 10.08C15.5491 8.5067 15.9225 7.1867 16.4558 6.12004C17.0158 5.0267 17.8291 4.1867 18.8958 3.60003C19.9891 2.9867 21.4291 2.57337 23.2158 2.36003V16.24C23.2158 17.7334 23.2425 19.1734 23.2958 20.56C23.3491 21.6267 23.5491 22.4267 23.8958 22.96C24.2691 23.4934 24.8425 23.8267 25.6158 23.96C26.3625 24.12 27.4691 24.2 28.9358 24.2C30.4558 24.2 31.7491 24.1334 32.8158 24C33.2425 23.9734 33.7625 23.9067 34.3758 23.8V29.6C33.0691 29.8934 31.5891 30.0934 29.9358 30.2C29.0291 30.28 28.0291 30.32 26.9358 30.32Z"/>
<path d="M46.6302 17.8H49.4302C49.4302 16.3067 49.2835 15.3467 48.9902 14.92C48.8302 14.68 48.6168 14.5334 48.3502 14.48C48.0835 14.4 47.6968 14.36 47.1902 14.36H46.6302V9.28004H47.1902C49.4835 9.28004 51.2435 9.4667 52.4702 9.84004C53.7235 10.2134 54.6435 10.8267 55.2302 11.68C55.7635 12.4267 56.0835 13.3867 56.1902 14.56C56.3235 15.7334 56.3902 17.4934 56.3902 19.84V21.44H46.6302V17.8ZM47.9902 30.32C45.5368 30.32 43.6035 30.12 42.1902 29.72C40.8035 29.2934 39.7635 28.6267 39.0702 27.72C38.4568 26.92 38.0568 25.9334 37.8702 24.76C37.6835 23.56 37.5902 21.92 37.5902 19.84C37.5902 17.92 37.6568 16.4 37.7902 15.28C37.9235 14.1334 38.2035 13.16 38.6302 12.36C39.1102 11.48 39.8435 10.8 40.8302 10.32C41.8435 9.81337 43.2168 9.49337 44.9502 9.36003V21.44C44.9502 22.3467 44.9902 23 45.0702 23.4C45.1502 23.7734 45.3368 24.0534 45.6302 24.24C45.9502 24.4534 46.4435 24.5734 47.1102 24.6C47.9635 24.6534 48.8702 24.68 49.8302 24.68C51.5368 24.68 52.7768 24.64 53.5502 24.56L55.5902 24.4V29.56C54.5235 29.88 53.0568 30.0934 51.1902 30.2C50.2835 30.28 49.2168 30.32 47.9902 30.32Z"/>
<path d="M72.0158 20.36C72.0158 18.9467 72.0025 18.0134 71.9758 17.56C71.9225 16.8134 71.8558 16.32 71.7758 16.08C71.6691 15.8134 71.4825 15.6534 71.2158 15.6C70.9491 15.52 70.5225 15.48 69.9358 15.48H69.5358V10.48C70.5758 9.7067 71.9358 9.32003 73.6158 9.32003C76.0158 9.32003 77.6291 10.0534 78.4558 11.52C78.8291 12.16 79.0825 12.9467 79.2158 13.88C79.3491 14.7867 79.4158 15.9067 79.4158 17.24V30H72.0158V20.36ZM60.4558 9.60003H67.8558V30H60.4558V9.60003Z"/>
<path d="M82.4114 9.60003H86.1714V3.68003H93.5714V9.60003H98.0514V15.24H82.4114V9.60003ZM86.1714 16.84H93.5714V30H86.1714V16.84Z"/>
<path d="M109.286 17.8H112.086C112.086 16.3067 111.94 15.3467 111.646 14.92C111.486 14.68 111.273 14.5334 111.006 14.48C110.74 14.4 110.353 14.36 109.846 14.36H109.286V9.28004H109.846C112.14 9.28004 113.9 9.4667 115.126 9.84004C116.38 10.2134 117.3 10.8267 117.886 11.68C118.42 12.4267 118.74 13.3867 118.846 14.56C118.98 15.7334 119.046 17.4934 119.046 19.84V21.44H109.286V17.8ZM110.646 30.32C108.193 30.32 106.26 30.12 104.846 29.72C103.46 29.2934 102.42 28.6267 101.726 27.72C101.113 26.92 100.713 25.9334 100.526 24.76C100.34 23.56 100.246 21.92 100.246 19.84C100.246 17.92 100.313 16.4 100.446 15.28C100.58 14.1334 100.86 13.16 101.286 12.36C101.766 11.48 102.5 10.8 103.486 10.32C104.5 9.81337 105.873 9.49337 107.606 9.36003V21.44C107.606 22.3467 107.646 23 107.726 23.4C107.806 23.7734 107.993 24.0534 108.286 24.24C108.606 24.4534 109.1 24.5734 109.766 24.6C110.62 24.6534 111.526 24.68 112.486 24.68C114.193 24.68 115.433 24.64 116.206 24.56L118.246 24.4V29.56C117.18 29.88 115.713 30.0934 113.846 30.2C112.94 30.28 111.873 30.32 110.646 30.32Z"/>
<path d="M132.192 10.76C132.752 10.2267 133.405 9.85337 134.152 9.64004C134.925 9.40004 135.872 9.28004 136.992 9.28004V15.96C135.792 15.96 134.805 16.04 134.032 16.2C133.285 16.36 132.672 16.64 132.192 17.04V10.76ZM123.112 9.60003H130.512V30H123.112V9.60003Z"/>
</mask>
<path d="M24.8958 2.20003C25.1091 2.17337 25.4425 2.16003 25.8958 2.16003H26.9358C28.7225 2.16003 30.4691 2.29337 32.1758 2.56003C33.0558 2.69337 33.7358 2.8267 34.2158 2.96003V8.68003C33.8158 8.65337 33.1491 8.5867 32.2158 8.48003C30.9625 8.3467 29.8691 8.28003 28.9358 8.28003C27.8958 8.28003 27.0558 8.32003 26.4158 8.40003C25.8025 8.45337 25.2958 8.56003 24.8958 8.72004V2.20003ZM26.9358 30.32C24.2691 30.32 22.1491 30.0934 20.5758 29.64C19.0291 29.16 17.8558 28.3734 17.0558 27.28C16.2825 26.24 15.7491 24.8667 15.4558 23.16C15.1891 21.4267 15.0558 19.12 15.0558 16.24C15.0558 13.7067 15.1491 11.6534 15.3358 10.08C15.5491 8.5067 15.9225 7.1867 16.4558 6.12004C17.0158 5.0267 17.8291 4.1867 18.8958 3.60003C19.9891 2.9867 21.4291 2.57337 23.2158 2.36003V16.24C23.2158 17.7334 23.2425 19.1734 23.2958 20.56C23.3491 21.6267 23.5491 22.4267 23.8958 22.96C24.2691 23.4934 24.8425 23.8267 25.6158 23.96C26.3625 24.12 27.4691 24.2 28.9358 24.2C30.4558 24.2 31.7491 24.1334 32.8158 24C33.2425 23.9734 33.7625 23.9067 34.3758 23.8V29.6C33.0691 29.8934 31.5891 30.0934 29.9358 30.2C29.0291 30.28 28.0291 30.32 26.9358 30.32Z" fill="#C1C5CC"/>
<path d="M46.6302 17.8H49.4302C49.4302 16.3067 49.2835 15.3467 48.9902 14.92C48.8302 14.68 48.6168 14.5334 48.3502 14.48C48.0835 14.4 47.6968 14.36 47.1902 14.36H46.6302V9.28004H47.1902C49.4835 9.28004 51.2435 9.4667 52.4702 9.84004C53.7235 10.2134 54.6435 10.8267 55.2302 11.68C55.7635 12.4267 56.0835 13.3867 56.1902 14.56C56.3235 15.7334 56.3902 17.4934 56.3902 19.84V21.44H46.6302V17.8ZM47.9902 30.32C45.5368 30.32 43.6035 30.12 42.1902 29.72C40.8035 29.2934 39.7635 28.6267 39.0702 27.72C38.4568 26.92 38.0568 25.9334 37.8702 24.76C37.6835 23.56 37.5902 21.92 37.5902 19.84C37.5902 17.92 37.6568 16.4 37.7902 15.28C37.9235 14.1334 38.2035 13.16 38.6302 12.36C39.1102 11.48 39.8435 10.8 40.8302 10.32C41.8435 9.81337 43.2168 9.49337 44.9502 9.36003V21.44C44.9502 22.3467 44.9902 23 45.0702 23.4C45.1502 23.7734 45.3368 24.0534 45.6302 24.24C45.9502 24.4534 46.4435 24.5734 47.1102 24.6C47.9635 24.6534 48.8702 24.68 49.8302 24.68C51.5368 24.68 52.7768 24.64 53.5502 24.56L55.5902 24.4V29.56C54.5235 29.88 53.0568 30.0934 51.1902 30.2C50.2835 30.28 49.2168 30.32 47.9902 30.32Z" fill="#C1C5CC"/>
<path d="M72.0158 20.36C72.0158 18.9467 72.0025 18.0134 71.9758 17.56C71.9225 16.8134 71.8558 16.32 71.7758 16.08C71.6691 15.8134 71.4825 15.6534 71.2158 15.6C70.9491 15.52 70.5225 15.48 69.9358 15.48H69.5358V10.48C70.5758 9.7067 71.9358 9.32003 73.6158 9.32003C76.0158 9.32003 77.6291 10.0534 78.4558 11.52C78.8291 12.16 79.0825 12.9467 79.2158 13.88C79.3491 14.7867 79.4158 15.9067 79.4158 17.24V30H72.0158V20.36ZM60.4558 9.60003H67.8558V30H60.4558V9.60003Z" fill="#C1C5CC"/>
<path d="M82.4114 9.60003H86.1714V3.68003H93.5714V9.60003H98.0514V15.24H82.4114V9.60003ZM86.1714 16.84H93.5714V30H86.1714V16.84Z" fill="#C1C5CC"/>
<path d="M109.286 17.8H112.086C112.086 16.3067 111.94 15.3467 111.646 14.92C111.486 14.68 111.273 14.5334 111.006 14.48C110.74 14.4 110.353 14.36 109.846 14.36H109.286V9.28004H109.846C112.14 9.28004 113.9 9.4667 115.126 9.84004C116.38 10.2134 117.3 10.8267 117.886 11.68C118.42 12.4267 118.74 13.3867 118.846 14.56C118.98 15.7334 119.046 17.4934 119.046 19.84V21.44H109.286V17.8ZM110.646 30.32C108.193 30.32 106.26 30.12 104.846 29.72C103.46 29.2934 102.42 28.6267 101.726 27.72C101.113 26.92 100.713 25.9334 100.526 24.76C100.34 23.56 100.246 21.92 100.246 19.84C100.246 17.92 100.313 16.4 100.446 15.28C100.58 14.1334 100.86 13.16 101.286 12.36C101.766 11.48 102.5 10.8 103.486 10.32C104.5 9.81337 105.873 9.49337 107.606 9.36003V21.44C107.606 22.3467 107.646 23 107.726 23.4C107.806 23.7734 107.993 24.0534 108.286 24.24C108.606 24.4534 109.1 24.5734 109.766 24.6C110.62 24.6534 111.526 24.68 112.486 24.68C114.193 24.68 115.433 24.64 116.206 24.56L118.246 24.4V29.56C117.18 29.88 115.713 30.0934 113.846 30.2C112.94 30.28 111.873 30.32 110.646 30.32Z" fill="#C1C5CC"/>
<path d="M132.192 10.76C132.752 10.2267 133.405 9.85337 134.152 9.64004C134.925 9.40004 135.872 9.28004 136.992 9.28004V15.96C135.792 15.96 134.805 16.04 134.032 16.2C133.285 16.36 132.672 16.64 132.192 17.04V10.76ZM123.112 9.60003H130.512V30H123.112V9.60003Z" fill="#C1C5CC"/>
<path d="M24.8958 2.20003C25.1091 2.17337 25.4425 2.16003 25.8958 2.16003H26.9358C28.7225 2.16003 30.4691 2.29337 32.1758 2.56003C33.0558 2.69337 33.7358 2.8267 34.2158 2.96003V8.68003C33.8158 8.65337 33.1491 8.5867 32.2158 8.48003C30.9625 8.3467 29.8691 8.28003 28.9358 8.28003C27.8958 8.28003 27.0558 8.32003 26.4158 8.40003C25.8025 8.45337 25.2958 8.56003 24.8958 8.72004V2.20003ZM26.9358 30.32C24.2691 30.32 22.1491 30.0934 20.5758 29.64C19.0291 29.16 17.8558 28.3734 17.0558 27.28C16.2825 26.24 15.7491 24.8667 15.4558 23.16C15.1891 21.4267 15.0558 19.12 15.0558 16.24C15.0558 13.7067 15.1491 11.6534 15.3358 10.08C15.5491 8.5067 15.9225 7.1867 16.4558 6.12004C17.0158 5.0267 17.8291 4.1867 18.8958 3.60003C19.9891 2.9867 21.4291 2.57337 23.2158 2.36003V16.24C23.2158 17.7334 23.2425 19.1734 23.2958 20.56C23.3491 21.6267 23.5491 22.4267 23.8958 22.96C24.2691 23.4934 24.8425 23.8267 25.6158 23.96C26.3625 24.12 27.4691 24.2 28.9358 24.2C30.4558 24.2 31.7491 24.1334 32.8158 24C33.2425 23.9734 33.7625 23.9067 34.3758 23.8V29.6C33.0691 29.8934 31.5891 30.0934 29.9358 30.2C29.0291 30.28 28.0291 30.32 26.9358 30.32Z" stroke="#363636" stroke-width="2" mask="url(#path-7-outside-1_77_172)"/>
<path d="M46.6302 17.8H49.4302C49.4302 16.3067 49.2835 15.3467 48.9902 14.92C48.8302 14.68 48.6168 14.5334 48.3502 14.48C48.0835 14.4 47.6968 14.36 47.1902 14.36H46.6302V9.28004H47.1902C49.4835 9.28004 51.2435 9.4667 52.4702 9.84004C53.7235 10.2134 54.6435 10.8267 55.2302 11.68C55.7635 12.4267 56.0835 13.3867 56.1902 14.56C56.3235 15.7334 56.3902 17.4934 56.3902 19.84V21.44H46.6302V17.8ZM47.9902 30.32C45.5368 30.32 43.6035 30.12 42.1902 29.72C40.8035 29.2934 39.7635 28.6267 39.0702 27.72C38.4568 26.92 38.0568 25.9334 37.8702 24.76C37.6835 23.56 37.5902 21.92 37.5902 19.84C37.5902 17.92 37.6568 16.4 37.7902 15.28C37.9235 14.1334 38.2035 13.16 38.6302 12.36C39.1102 11.48 39.8435 10.8 40.8302 10.32C41.8435 9.81337 43.2168 9.49337 44.9502 9.36003V21.44C44.9502 22.3467 44.9902 23 45.0702 23.4C45.1502 23.7734 45.3368 24.0534 45.6302 24.24C45.9502 24.4534 46.4435 24.5734 47.1102 24.6C47.9635 24.6534 48.8702 24.68 49.8302 24.68C51.5368 24.68 52.7768 24.64 53.5502 24.56L55.5902 24.4V29.56C54.5235 29.88 53.0568 30.0934 51.1902 30.2C50.2835 30.28 49.2168 30.32 47.9902 30.32Z" stroke="#363636" stroke-width="2" mask="url(#path-7-outside-1_77_172)"/>
<path d="M72.0158 20.36C72.0158 18.9467 72.0025 18.0134 71.9758 17.56C71.9225 16.8134 71.8558 16.32 71.7758 16.08C71.6691 15.8134 71.4825 15.6534 71.2158 15.6C70.9491 15.52 70.5225 15.48 69.9358 15.48H69.5358V10.48C70.5758 9.7067 71.9358 9.32003 73.6158 9.32003C76.0158 9.32003 77.6291 10.0534 78.4558 11.52C78.8291 12.16 79.0825 12.9467 79.2158 13.88C79.3491 14.7867 79.4158 15.9067 79.4158 17.24V30H72.0158V20.36ZM60.4558 9.60003H67.8558V30H60.4558V9.60003Z" stroke="#363636" stroke-width="2" mask="url(#path-7-outside-1_77_172)"/>
<path d="M82.4114 9.60003H86.1714V3.68003H93.5714V9.60003H98.0514V15.24H82.4114V9.60003ZM86.1714 16.84H93.5714V30H86.1714V16.84Z" stroke="#363636" stroke-width="2" mask="url(#path-7-outside-1_77_172)"/>
<path d="M109.286 17.8H112.086C112.086 16.3067 111.94 15.3467 111.646 14.92C111.486 14.68 111.273 14.5334 111.006 14.48C110.74 14.4 110.353 14.36 109.846 14.36H109.286V9.28004H109.846C112.14 9.28004 113.9 9.4667 115.126 9.84004C116.38 10.2134 117.3 10.8267 117.886 11.68C118.42 12.4267 118.74 13.3867 118.846 14.56C118.98 15.7334 119.046 17.4934 119.046 19.84V21.44H109.286V17.8ZM110.646 30.32C108.193 30.32 106.26 30.12 104.846 29.72C103.46 29.2934 102.42 28.6267 101.726 27.72C101.113 26.92 100.713 25.9334 100.526 24.76C100.34 23.56 100.246 21.92 100.246 19.84C100.246 17.92 100.313 16.4 100.446 15.28C100.58 14.1334 100.86 13.16 101.286 12.36C101.766 11.48 102.5 10.8 103.486 10.32C104.5 9.81337 105.873 9.49337 107.606 9.36003V21.44C107.606 22.3467 107.646 23 107.726 23.4C107.806 23.7734 107.993 24.0534 108.286 24.24C108.606 24.4534 109.1 24.5734 109.766 24.6C110.62 24.6534 111.526 24.68 112.486 24.68C114.193 24.68 115.433 24.64 116.206 24.56L118.246 24.4V29.56C117.18 29.88 115.713 30.0934 113.846 30.2C112.94 30.28 111.873 30.32 110.646 30.32Z" stroke="#363636" stroke-width="2" mask="url(#path-7-outside-1_77_172)"/>
<path d="M132.192 10.76C132.752 10.2267 133.405 9.85337 134.152 9.64004C134.925 9.40004 135.872 9.28004 136.992 9.28004V15.96C135.792 15.96 134.805 16.04 134.032 16.2C133.285 16.36 132.672 16.64 132.192 17.04V10.76ZM123.112 9.60003H130.512V30H123.112V9.60003Z" stroke="#363636" stroke-width="2" mask="url(#path-7-outside-1_77_172)"/>
<mask id="path-8-inside-2_77_172" fill="white">
<path d="M28.4336 63H15L28.4336 33V63Z"/>
</mask>
<path d="M28.4336 63H15L28.4336 33V63Z" fill="#C1C5CC"/>
<path d="M28.4336 63V64H29.4336V63H28.4336ZM15 63L14.0873 62.5913L13.4565 64H15V63ZM28.4336 33H29.4336L27.5209 32.5913L28.4336 33ZM28.4336 63V62H15V63V64H28.4336V63ZM15 63L15.9127 63.4087L29.3463 33.4087L28.4336 33L27.5209 32.5913L14.0873 62.5913L15 63ZM28.4336 33H27.4336V63H28.4336H29.4336V33H28.4336Z" fill="#363636" mask="url(#path-8-inside-2_77_172)"/>
<mask id="path-10-inside-3_77_172" fill="white">
<path d="M124 63H137.434L124 33V63Z"/>
</mask>
<path d="M124 63H137.434L124 33V63Z" fill="#C1C5CC"/>
<path d="M124 63V64H123V63H124ZM137.434 63L138.346 62.5913L138.977 64H137.434V63ZM124 33H123L124.913 32.5913L124 33ZM124 63V62H137.434V63V64H124V63ZM137.434 63L136.521 63.4087L123.087 33.4087L124 33L124.913 32.5913L138.346 62.5913L137.434 63ZM124 33H125V63H124H123V33H124Z" fill="#363636" mask="url(#path-10-inside-3_77_172)"/>
</svg>
