<svg width="143" height="68" viewBox="0 0 143 68" fill="none" xmlns="http://www.w3.org/2000/svg">
<rect y="2" width="143" height="66" fill="#777777"/>
<rect y="2" width="10" height="66" fill="#DC3F61"/>
<g filter="url(#filter0_d_77_175)">
<path d="M36.2617 32H32.9017V22.64C32.9017 21.9467 32.7417 21.4133 32.4217 21.04C32.1017 20.6667 31.5417 20.48 30.7417 20.48H22.0217V32H18.6617V4H28.6617C30.1017 4 31.3551 4.21333 32.4217 4.64C33.4884 5.04 34.3684 5.58667 35.0617 6.28C35.7817 6.97333 36.3151 7.78667 36.6617 8.72C37.0351 9.62667 37.2217 10.5867 37.2217 11.6V12.8C37.2217 13.84 36.9284 14.88 36.3417 15.92C35.7817 16.96 34.9017 17.76 33.7017 18.32V18.8C34.5017 18.9333 35.1284 19.2533 35.5817 19.76C36.0351 20.2667 36.2617 20.9867 36.2617 21.92V32ZM22.0217 17.36H28.2617C30.1551 17.36 31.5551 16.96 32.4617 16.16C33.3951 15.3333 33.8617 14.1333 33.8617 12.56V11.84C33.8617 10.4267 33.3951 9.29333 32.4617 8.44C31.5551 7.56 30.1551 7.12 28.2617 7.12H22.0217V17.36Z" fill="#FF85A0"/>
<path d="M45.5139 23.04C45.5939 25.0133 46.2073 26.6 47.3539 27.8C48.5006 29 50.1006 29.6 52.1539 29.6C53.0873 29.6 53.9006 29.4933 54.5939 29.28C55.2873 29.0667 55.8739 28.7733 56.3539 28.4C56.8606 28.0267 57.2606 27.6 57.5539 27.12C57.8739 26.6133 58.1273 26.08 58.3139 25.52L61.2739 26.32C60.7139 28.16 59.6739 29.6667 58.1539 30.84C56.6606 31.9867 54.6339 32.56 52.0739 32.56C50.6606 32.56 49.3539 32.32 48.1539 31.84C46.9806 31.3333 45.9673 30.6267 45.1139 29.72C44.2606 28.8133 43.5939 27.7333 43.1139 26.48C42.6339 25.2267 42.3939 23.84 42.3939 22.32V21.36C42.3939 19.9733 42.6339 18.68 43.1139 17.48C43.6206 16.28 44.3139 15.2533 45.1939 14.4C46.0739 13.52 47.1006 12.84 48.2739 12.36C49.4739 11.8533 50.7673 11.6 52.1539 11.6C53.7806 11.6 55.1806 11.9067 56.3539 12.52C57.5539 13.1067 58.5273 13.84 59.2739 14.72C60.0473 15.6 60.6073 16.56 60.9539 17.6C61.3273 18.64 61.5139 19.6 61.5139 20.48V23.04H45.5139ZM52.1539 14.56C51.2739 14.56 50.4473 14.7067 49.6739 15C48.9273 15.2667 48.2606 15.6533 47.6739 16.16C47.1139 16.6667 46.6473 17.2667 46.2739 17.96C45.9273 18.6267 45.7006 19.36 45.5939 20.16H58.3939C58.3406 19.3067 58.1273 18.5333 57.7539 17.84C57.4073 17.1467 56.9406 16.56 56.3539 16.08C55.7939 15.6 55.1406 15.2267 54.3939 14.96C53.6739 14.6933 52.9273 14.56 52.1539 14.56Z" fill="#FF85A0"/>
<path d="M83.0861 28.96H82.6061C82.2861 29.5733 81.8728 30.1067 81.3661 30.56C80.8861 31.0133 80.3528 31.3867 79.7661 31.68C79.2061 31.9733 78.6061 32.1867 77.9661 32.32C77.3261 32.48 76.7128 32.56 76.1261 32.56C74.7928 32.56 73.5528 32.3333 72.4061 31.88C71.2595 31.4267 70.2461 30.7733 69.3661 29.92C68.5128 29.0667 67.8328 28.0133 67.3261 26.76C66.8461 25.48 66.6061 24.0267 66.6061 22.4V21.76C66.6061 20.16 66.8595 18.7333 67.3661 17.48C67.8728 16.2 68.5528 15.1333 69.4061 14.28C70.2595 13.4 71.2595 12.7333 72.4061 12.28C73.5528 11.8267 74.7661 11.6 76.0461 11.6C77.4061 11.6 78.6728 11.9067 79.8461 12.52C81.0461 13.1067 81.9661 14.0267 82.6061 15.28H83.0861V4H86.2061V32H83.0861V28.96ZM76.4461 29.6C77.3795 29.6 78.2461 29.4267 79.0461 29.08C79.8461 28.7333 80.5395 28.24 81.1261 27.6C81.7395 26.96 82.2195 26.2 82.5661 25.32C82.9128 24.4133 83.0861 23.4133 83.0861 22.32V21.84C83.0861 20.7733 82.9128 19.8 82.5661 18.92C82.2195 18.0133 81.7395 17.24 81.1261 16.6C80.5395 15.96 79.8328 15.4667 79.0061 15.12C78.2061 14.7467 77.3528 14.56 76.4461 14.56C75.5128 14.56 74.6328 14.7333 73.8061 15.08C73.0061 15.4267 72.2995 15.92 71.6861 16.56C71.0995 17.2 70.6328 17.96 70.2861 18.84C69.9661 19.72 69.8061 20.6933 69.8061 21.76V22.4C69.8061 23.52 69.9661 24.52 70.2861 25.4C70.6328 26.28 71.0995 27.04 71.6861 27.68C72.2995 28.2933 73.0061 28.7733 73.8061 29.12C74.6061 29.44 75.4861 29.6 76.4461 29.6Z" fill="#FF85A0"/>
</g>
<g filter="url(#filter1_d_77_175)">
<path d="M39.0956 35H57.8156V40.04L41.0156 59.4V59.88H58.2956V63H38.1356V57.96L54.9356 38.6V38.12H39.0956V35Z" fill="#FF85A0"/>
<path d="M82.7078 53.32C82.7078 54.9733 82.4278 56.44 81.8678 57.72C81.3345 58.9733 80.6145 60.04 79.7078 60.92C78.8011 61.7733 77.7345 62.4267 76.5078 62.88C75.3078 63.3333 74.0545 63.56 72.7478 63.56C71.4145 63.56 70.1478 63.3333 68.9478 62.88C67.7478 62.4267 66.6945 61.7733 65.7878 60.92C64.8811 60.04 64.1478 58.9733 63.5878 57.72C63.0545 56.44 62.7878 54.9733 62.7878 53.32V52.84C62.7878 51.2133 63.0545 49.7733 63.5878 48.52C64.1478 47.24 64.8811 46.16 65.7878 45.28C66.7211 44.4 67.7878 43.7333 68.9878 43.28C70.1878 42.8267 71.4411 42.6 72.7478 42.6C74.0545 42.6 75.3078 42.8267 76.5078 43.28C77.7078 43.7333 78.7611 44.4 79.6678 45.28C80.6011 46.16 81.3345 47.24 81.8678 48.52C82.4278 49.7733 82.7078 51.2133 82.7078 52.84V53.32ZM72.7478 60.6C73.7078 60.6 74.5878 60.44 75.3878 60.12C76.2145 59.7733 76.9345 59.28 77.5478 58.64C78.1611 58 78.6411 57.24 78.9878 56.36C79.3345 55.4533 79.5078 54.44 79.5078 53.32V52.84C79.5078 51.7733 79.3345 50.8 78.9878 49.92C78.6411 49.0133 78.1611 48.24 77.5478 47.6C76.9345 46.96 76.2145 46.4667 75.3878 46.12C74.5611 45.7467 73.6811 45.56 72.7478 45.56C71.8145 45.56 70.9345 45.7467 70.1078 46.12C69.2811 46.4667 68.5611 46.96 67.9478 47.6C67.3345 48.24 66.8545 49.0133 66.5078 49.92C66.1611 50.8 65.9878 51.7733 65.9878 52.84V53.32C65.9878 54.44 66.1611 55.4533 66.5078 56.36C66.8545 57.24 67.3345 58 67.9478 58.64C68.5611 59.28 69.2678 59.7733 70.0678 60.12C70.8945 60.44 71.7878 60.6 72.7478 60.6Z" fill="#FF85A0"/>
<path d="M91.6 63H88.48V43.16H91.6V46.52H92.08C93.3067 43.9067 95.44 42.6 98.48 42.6C100.773 42.6 102.6 43.32 103.96 44.76C105.32 46.1733 106 48.3067 106 51.16V63H102.88V51.8C102.88 49.72 102.413 48.16 101.48 47.12C100.547 46.08 99.28 45.56 97.68 45.56C95.7867 45.56 94.2933 46.2133 93.2 47.52C92.1333 48.8 91.6 50.52 91.6 52.68V63Z" fill="#FF85A0"/>
<path d="M115.252 54.04C115.332 56.0133 115.946 57.6 117.092 58.8C118.239 60 119.839 60.6 121.892 60.6C122.826 60.6 123.639 60.4933 124.332 60.28C125.026 60.0667 125.612 59.7733 126.092 59.4C126.599 59.0267 126.999 58.6 127.292 58.12C127.612 57.6133 127.866 57.08 128.052 56.52L131.012 57.32C130.452 59.16 129.412 60.6667 127.892 61.84C126.399 62.9867 124.372 63.56 121.812 63.56C120.399 63.56 119.092 63.32 117.892 62.84C116.719 62.3333 115.706 61.6267 114.852 60.72C113.999 59.8133 113.332 58.7333 112.852 57.48C112.372 56.2267 112.132 54.84 112.132 53.32V52.36C112.132 50.9733 112.372 49.68 112.852 48.48C113.359 47.28 114.052 46.2533 114.932 45.4C115.812 44.52 116.839 43.84 118.012 43.36C119.212 42.8533 120.506 42.6 121.892 42.6C123.519 42.6 124.919 42.9067 126.092 43.52C127.292 44.1067 128.266 44.84 129.012 45.72C129.786 46.6 130.346 47.56 130.692 48.6C131.066 49.64 131.252 50.6 131.252 51.48V54.04H115.252ZM121.892 45.56C121.012 45.56 120.186 45.7067 119.412 46C118.666 46.2667 117.999 46.6533 117.412 47.16C116.852 47.6667 116.386 48.2667 116.012 48.96C115.666 49.6267 115.439 50.36 115.332 51.16H128.132C128.079 50.3067 127.866 49.5333 127.492 48.84C127.146 48.1467 126.679 47.56 126.092 47.08C125.532 46.6 124.879 46.2267 124.132 45.96C123.412 45.6933 122.666 45.56 121.892 45.56Z" fill="#FF85A0"/>
</g>
<g filter="url(#filter2_d_77_175)">
<path d="M90 18L112 4L134 18L112 32L90 18Z" fill="#FF85A0"/>
</g>
<g filter="url(#filter3_d_77_175)">
<path d="M18 49L28 35L38 49L28 63L18 49Z" fill="#FF85A0"/>
</g>
<defs>
<filter id="filter0_d_77_175" x="14.6617" y="0" width="75.5443" height="36.5601" filterUnits="userSpaceOnUse" color-interpolation-filters="sRGB">
<feFlood flood-opacity="0" result="BackgroundImageFix"/>
<feColorMatrix in="SourceAlpha" type="matrix" values="0 0 0 0 0 0 0 0 0 0 0 0 0 0 0 0 0 0 127 0" result="hardAlpha"/>
<feOffset/>
<feGaussianBlur stdDeviation="2"/>
<feComposite in2="hardAlpha" operator="out"/>
<feColorMatrix type="matrix" values="0 0 0 0 0.871487 0 0 0 0 0.237488 0 0 0 0 0.374787 0 0 0 1 0"/>
<feBlend mode="normal" in2="BackgroundImageFix" result="effect1_dropShadow_77_175"/>
<feBlend mode="normal" in="SourceGraphic" in2="effect1_dropShadow_77_175" result="shape"/>
</filter>
<filter id="filter1_d_77_175" x="34.1356" y="31" width="101.117" height="36.5601" filterUnits="userSpaceOnUse" color-interpolation-filters="sRGB">
<feFlood flood-opacity="0" result="BackgroundImageFix"/>
<feColorMatrix in="SourceAlpha" type="matrix" values="0 0 0 0 0 0 0 0 0 0 0 0 0 0 0 0 0 0 127 0" result="hardAlpha"/>
<feOffset/>
<feGaussianBlur stdDeviation="2"/>
<feComposite in2="hardAlpha" operator="out"/>
<feColorMatrix type="matrix" values="0 0 0 0 0.871487 0 0 0 0 0.237488 0 0 0 0 0.374787 0 0 0 1 0"/>
<feBlend mode="normal" in2="BackgroundImageFix" result="effect1_dropShadow_77_175"/>
<feBlend mode="normal" in="SourceGraphic" in2="effect1_dropShadow_77_175" result="shape"/>
</filter>
<filter id="filter2_d_77_175" x="86" y="0" width="52" height="36" filterUnits="userSpaceOnUse" color-interpolation-filters="sRGB">
<feFlood flood-opacity="0" result="BackgroundImageFix"/>
<feColorMatrix in="SourceAlpha" type="matrix" values="0 0 0 0 0 0 0 0 0 0 0 0 0 0 0 0 0 0 127 0" result="hardAlpha"/>
<feOffset/>
<feGaussianBlur stdDeviation="2"/>
<feComposite in2="hardAlpha" operator="out"/>
<feColorMatrix type="matrix" values="0 0 0 0 0.871487 0 0 0 0 0.237488 0 0 0 0 0.374787 0 0 0 1 0"/>
<feBlend mode="normal" in2="BackgroundImageFix" result="effect1_dropShadow_77_175"/>
<feBlend mode="normal" in="SourceGraphic" in2="effect1_dropShadow_77_175" result="shape"/>
</filter>
<filter id="filter3_d_77_175" x="14" y="31" width="28" height="36" filterUnits="userSpaceOnUse" color-interpolation-filters="sRGB">
<feFlood flood-opacity="0" result="BackgroundImageFix"/>
<feColorMatrix in="SourceAlpha" type="matrix" values="0 0 0 0 0 0 0 0 0 0 0 0 0 0 0 0 0 0 127 0" result="hardAlpha"/>
<feOffset/>
<feGaussianBlur stdDeviation="2"/>
<feComposite in2="hardAlpha" operator="out"/>
<feColorMatrix type="matrix" values="0 0 0 0 0.871487 0 0 0 0 0.237488 0 0 0 0 0.374787 0 0 0 1 0"/>
<feBlend mode="normal" in2="BackgroundImageFix" result="effect1_dropShadow_77_175"/>
<feBlend mode="normal" in="SourceGraphic" in2="effect1_dropShadow_77_175" result="shape"/>
</filter>
</defs>
</svg>
