<svg width="200" height="200" viewBox="0 0 200 200" fill="none" xmlns="http://www.w3.org/2000/svg">
<g clip-path="url(#clip0_162_39)">
<path d="M170.093 68.1816C170.093 102.44 144.118 130.796 110.28 135.634V151.348C144.118 154.25 170.093 171.263 170.093 191.818C170.093 192 170.09 192.182 170.086 192.363H170.093V200H29.9062V192.363H29.9131C29.909 192.182 29.9063 192 29.9062 191.818C29.9062 170.886 56.8431 153.627 91.5889 151.202V135.876C56.8432 131.834 29.9062 103.068 29.9062 68.1816V69.0908C13.3895 69.0907 4.92794e-05 56.0663 0 40C4.98063e-05 23.9337 13.3895 10.9093 29.9062 10.9092V0H170.093V68.1816ZM170.094 10.9092C186.611 10.9093 200 23.9337 200 40C200 56.0663 186.611 69.0907 170.094 69.0908V58.1816C180.417 58.1815 188.785 50.0414 188.785 40C188.785 29.9586 180.417 21.8185 170.094 21.8184V10.9092ZM29.9062 21.8184C19.5833 21.8185 11.2148 29.9586 11.2148 40C11.2149 50.0414 19.5833 58.1815 29.9062 58.1816V21.8184Z" fill="#4367A9"/>
<path d="M111.936 64.1C114.469 64.5 116.769 65.5333 118.836 67.2C120.969 68.8667 122.636 70.9333 123.836 73.4C125.103 75.8667 125.736 78.5 125.736 81.3C125.736 84.8333 124.836 88.0333 123.036 90.9C121.236 93.7 118.603 95.9333 115.136 97.6C111.736 99.2 107.703 100 103.036 100H77.0359V30.3H102.036C106.769 30.3 110.803 31.1 114.136 32.7C117.469 34.2333 119.969 36.3333 121.636 39C123.303 41.6667 124.136 44.6667 124.136 48C124.136 52.1333 123.003 55.5667 120.736 58.3C118.536 60.9667 115.603 62.9 111.936 64.1ZM86.1359 60.4H101.436C105.703 60.4 109.003 59.4 111.336 57.4C113.669 55.4 114.836 52.6333 114.836 49.1C114.836 45.5667 113.669 42.8 111.336 40.8C109.003 38.8 105.636 37.8 101.236 37.8H86.1359V60.4ZM102.236 92.5C106.769 92.5 110.303 91.4333 112.836 89.3C115.369 87.1667 116.636 84.2 116.636 80.4C116.636 76.5333 115.303 73.5 112.636 71.3C109.969 69.0333 106.403 67.9 101.936 67.9H86.1359V92.5H102.236Z" fill="#1C1C1C" fill-opacity="0.28"/>
</g>
<defs>
<clipPath id="clip0_162_39">
<rect width="200" height="200" fill="white"/>
</clipPath>
</defs>
</svg>
