<svg width="200" height="200" viewBox="0 0 200 200" fill="none" xmlns="http://www.w3.org/2000/svg">
<g clip-path="url(#clip0_162_39)">
<path d="M170.093 68.1816C170.093 102.44 144.118 130.796 110.28 135.634V151.348C144.118 154.25 170.093 171.263 170.093 191.818C170.093 192 170.09 192.182 170.086 192.363H170.093V200H29.9062V192.363H29.9131C29.909 192.182 29.9063 192 29.9062 191.818C29.9062 170.886 56.8431 153.627 91.5889 151.202V135.876C56.8432 131.834 29.9062 103.068 29.9062 68.1816V69.0908C13.3895 69.0907 4.92794e-05 56.0663 0 40C4.98063e-05 23.9337 13.3895 10.9093 29.9062 10.9092V0H170.093V68.1816ZM170.094 10.9092C186.611 10.9093 200 23.9337 200 40C200 56.0663 186.611 69.0907 170.094 69.0908V58.1816C180.417 58.1815 188.785 50.0414 188.785 40C188.785 29.9586 180.417 21.8185 170.094 21.8184V10.9092ZM29.9062 21.8184C19.5833 21.8185 11.2148 29.9586 11.2148 40C11.2149 50.0414 19.5833 58.1815 29.9062 58.1816V21.8184Z" fill="#DC3F61"/>
<path d="M114.48 100L97.8801 71.5H86.8801V100H77.7801V30.3H100.28C105.547 30.3 109.98 31.2 113.58 33C117.247 34.8 119.98 37.2333 121.78 40.3C123.58 43.3667 124.48 46.8667 124.48 50.8C124.48 55.6 123.08 59.8333 120.28 63.5C117.547 67.1667 113.413 69.6 107.88 70.8L125.38 100H114.48ZM86.8801 64.2H100.28C105.213 64.2 108.913 63 111.38 60.6C113.847 58.1333 115.08 54.8667 115.08 50.8C115.08 46.6667 113.847 43.4667 111.38 41.2C108.98 38.9333 105.28 37.8 100.28 37.8H86.8801V64.2Z" fill="#1C1C1C" fill-opacity="0.28"/>
</g>
<defs>
<clipPath id="clip0_162_39">
<rect width="200" height="200" fill="white"/>
</clipPath>
</defs>
</svg>
