<svg width="200" height="200" viewBox="0 0 200 200" fill="none" xmlns="http://www.w3.org/2000/svg">
<rect x="8" y="183.169" width="236.071" height="22.9698" transform="rotate(-45 8 183.169)" fill="white"/>
<path d="M145.488 125.105C164.789 125.105 180.435 140.751 180.435 160.052C180.435 179.353 164.789 195 145.488 195C126.187 194.999 110.541 179.353 110.541 160.052C110.541 140.751 126.187 125.105 145.488 125.105Z" stroke="white" stroke-width="10"/>
<rect x="141.494" y="132.09" width="7.98949" height="27.9632" fill="white"/>
<rect x="137.499" y="116.11" width="15.979" height="7.98948" fill="white"/>
<rect x="129.509" y="108.121" width="31.958" height="7.98948" fill="white"/>
<path d="M8.14906 64.9683L21.1427 51.9746L53.6269 84.4588L40.6332 97.4524L8.14906 64.9683Z" fill="white"/>
<path d="M92.6079 19.4904L105.602 32.4841L73.1174 64.9683L40.6332 97.4524L27.6396 84.4588L92.6079 19.4904Z" fill="white"/>
</svg>
