<svg width="200" height="200" viewBox="0 0 200 200" fill="none" xmlns="http://www.w3.org/2000/svg">
<g clip-path="url(#clip0_162_39)">
<rect x="11.1453" y="180.289" width="243.398" height="23.6827" transform="rotate(-45 11.1453 180.289)" fill="white"/>
<path d="M152.901 120.267C172.887 120.267 189.089 136.469 189.089 156.455C189.089 176.44 172.887 192.641 152.901 192.641C132.916 192.641 116.714 176.44 116.714 156.455C116.714 136.469 132.915 120.267 152.901 120.267Z" stroke="white" stroke-width="10"/>
<rect x="148.782" y="127.624" width="8.23746" height="28.8311" fill="white"/>
<rect x="144.663" y="111.148" width="16.4749" height="8.23745" fill="white"/>
<rect x="136.426" y="102.911" width="32.9498" height="8.23745" fill="white"/>
<path d="M54.0567 102.21L36.5067 119.76L41.9995 130.879L30.0092 142.87L-1.52588e-05 78.8322L13.263 65.5692L77.3005 95.5784L65.1762 107.703L54.0567 102.21ZM42.2674 96.3152L19.2246 84.9278L30.679 107.904L42.2674 96.3152Z" fill="white"/>
<path d="M85.0911 70.1038L100.096 55.0992L108.938 63.9412L82.4787 90.4002L35.4554 43.3768L46.9098 31.9224L85.0911 70.1038Z" fill="white"/>
<path d="M117.014 38.1813L132.018 23.1767L140.86 32.0187L114.401 58.4777L67.3778 11.4544L78.8322 0L117.014 38.1813Z" fill="white"/>
</g>
<defs>
<clipPath id="clip0_162_39">
<rect width="200" height="200" fill="white"/>
</clipPath>
</defs>
</svg>
